<svg width="1310px" height="1310px" version="1.1" xmlns="http://www.w3.org/2000/svg" xmlns:xlink="http://www.w3.org/1999/xlink" xml:space="preserve" xmlns:serif="http://www.serif.com/" style="fill-rule:evenodd;clip-rule:evenodd"><g id="Artboard1" transform="matrix(0.856209,0,0,0.873333,0,0)"><rect x="0" y="0" width="1530" height="1500" style="fill:none"/><clipPath id="_clip1"><rect x="0" y="0" width="1530" height="1500"/></clipPath><g clip-path="url(#_clip1)"><g transform="matrix(1,0,0,1,-231.852,-226.023)"><g transform="matrix(1.16794,0,0,1.14504,0,0)"><path d="M958.478,709.316C1037.25,767.102 1054.11,878.006 996.137,957.027C938.166,1036.05 827.315,1053.26 748.547,995.471C669.779,937.684 652.916,826.78 710.888,747.76C768.859,668.739 879.709,651.529 958.478,709.316Z" style="fill:none;fill-rule:nonzero;stroke:rgb(111,215,146);stroke-width:0.95px"/></g><g transform="matrix(1.16794,0,0,1.14504,0,0)"><path d="M1003.33,648.181C1115.76,730.66 1139.82,888.952 1057.08,1001.74C974.34,1114.52 816.124,1139.09 703.698,1056.61C591.271,974.129 567.204,815.836 649.946,703.051C732.688,590.266 890.904,565.701 1003.33,648.181Z" style="fill:none;fill-rule:nonzero;stroke:rgb(111,215,146);stroke-width:0.9px"/></g><g transform="matrix(1.16794,0,0,1.14504,0,0)"><path d="M889.27,494.186C1086.48,513.873 1230.34,690.207 1210.59,888.041C1190.84,1085.88 1014.96,1230.29 817.751,1210.6C620.545,1190.92 476.685,1014.58 496.434,816.748C516.184,618.914 692.064,474.499 889.27,494.186Z" style="fill:none;fill-rule:nonzero;stroke:rgb(111,215,146);stroke-width:0.95px"/></g><g transform="matrix(1.16794,0,0,1.14504,0,0)"><path d="M899.629,390.395C1153.98,415.786 1339.52,643.212 1314.05,898.367C1288.57,1153.52 1061.73,1339.78 807.388,1314.39C553.041,1289 367.499,1061.57 392.971,806.417C418.442,551.262 645.282,365.004 899.629,390.395Z" style="fill:none;fill-rule:nonzero;stroke:rgb(111,215,146);stroke-width:0.95px"/></g><g transform="matrix(1.16794,0,0,1.14504,0,0)"><g opacity="0.8"><path d="M524.778,399.696C774.007,218.713 1123.23,274.676 1304.79,524.697C1486.35,774.718 1431.48,1124.12 1182.25,1305.1C933.024,1486.08 583.801,1430.12 402.244,1180.1C220.686,930.076 275.548,580.679 524.778,399.696Z" style="fill:none;fill-rule:nonzero;stroke:rgb(111,215,146);stroke-width:0.95px"/></g></g><g transform="matrix(1.16794,0,0,1.14504,0,0)"><g opacity="0.3"><path d="M249.456,602.771C386.882,270.214 768.733,112.381 1102.35,250.244C1435.96,388.107 1595,769.458 1457.57,1102.02C1320.14,1434.57 938.291,1592.41 604.678,1454.54C271.066,1316.68 112.029,935.328 249.456,602.771Z" style="fill:none;fill-rule:nonzero;stroke:rgb(111,215,146);stroke-width:0.95px"/></g></g></g></g></g></svg>