<svg width="403" height="146" viewBox="0 0 403 146" fill="none" xmlns="http://www.w3.org/2000/svg">
<g clip-path="url(#clip0_9926_5656)">
<path d="M323.714 -77.5659C323.714 -144.915 269.144 -199.511 201.828 -199.511C134.512 -199.511 79.9414 -144.915 79.9414 -77.5659C79.9414 -10.2172 134.512 44.3789 201.828 44.3789C269.144 44.3789 323.714 -10.2172 323.714 -77.5659Z" stroke="#6FD792" stroke-width="2"/>
<path opacity="0.6" d="M347.923 -77.0378C347.923 -158.084 282.278 -223.783 201.301 -223.783C120.325 -223.783 54.6797 -158.084 54.6797 -77.0378C54.6797 4.00792 120.325 69.707 201.301 69.707C282.278 69.707 347.923 4.00792 347.923 -77.0378Z" stroke="#6FD792" stroke-width="2"/>
<path opacity="0.5" d="M375.286 -76.2478C375.286 -171.718 297.86 -249.112 202.35 -249.112C106.84 -249.112 29.4141 -171.718 29.4141 -76.2478C29.4141 19.222 106.84 96.6162 202.35 96.6162C297.86 96.6162 375.286 19.222 375.286 -76.2478Z" stroke="#6FD792" stroke-width="2"/>
<circle opacity="0.3" cx="201.302" cy="201.302" r="200.302" transform="matrix(1 0 0 -1 0 124)" stroke="#6FD792" stroke-width="2"/>
</g>
<defs>
<clipPath id="clip0_9926_5656">
<rect width="403" height="146" fill="white"/>
</clipPath>
</defs>
</svg>
