<svg width="200" height="30" viewBox="0 0 200 30" fill="none" xmlns="http://www.w3.org/2000/svg">
<g id="Erakulis-Logo">
<path id="logo-erakulis-new" fill-rule="evenodd" clip-rule="evenodd" d="M196.975 4.64707C196.826 4.79549 196.646 4.86934 196.432 4.86934H195.345V3.35867H196.432C196.646 3.35867 196.826 3.43059 196.975 3.5742C197.123 3.71829 197.197 3.89606 197.197 4.10751C197.197 4.31944 197.123 4.49937 196.975 4.64707ZM197.611 4.95832C197.788 4.71296 197.876 4.42935 197.876 4.10749C197.876 3.90422 197.839 3.7161 197.765 3.54243C197.691 3.36923 197.588 3.21672 197.456 3.08537C197.324 2.95427 197.17 2.85035 196.993 2.7741C196.816 2.69808 196.629 2.66007 196.432 2.66007H194.666V6.78701H195.148H195.345V5.56765H196.172L196.938 6.78701H197.74L196.925 5.47888C197.205 5.37713 197.433 5.20393 197.611 4.95832ZM197.327 7.52329C196.952 7.68422 196.551 7.76456 196.123 7.76456C195.695 7.76456 195.294 7.68422 194.919 7.52329C194.545 7.3626 194.217 7.14466 193.938 6.86922C193.658 6.59451 193.438 6.27265 193.278 5.90436C193.117 5.53583 193.037 5.14036 193.037 4.71699C193.037 4.30252 193.117 3.90873 193.278 3.53587C193.438 3.16373 193.658 2.83971 193.938 2.56476C194.217 2.28956 194.545 2.07162 194.919 1.91069C195.294 1.75 195.695 1.66942 196.123 1.66942C196.551 1.66942 196.952 1.75 197.327 1.91069C197.701 2.07162 198.028 2.28956 198.308 2.56476C198.588 2.83971 198.808 3.16373 198.969 3.53587C199.129 3.90873 199.209 4.30252 199.209 4.71699C199.209 5.14036 199.129 5.53583 198.969 5.90436C198.808 6.27265 198.588 6.59451 198.308 6.86922C198.028 7.14466 197.701 7.3626 197.327 7.52329ZM197.592 1.24408C197.131 1.04539 196.641 0.945557 196.123 0.945557C195.604 0.945557 195.117 1.04539 194.66 1.24408C194.203 1.44302 193.804 1.71196 193.463 2.05042C193.121 2.38912 192.851 2.78916 192.654 3.2503C192.456 3.71168 192.358 4.20073 192.358 4.71696C192.358 5.24209 192.456 5.73282 192.654 6.18987C192.851 6.64716 193.121 7.04504 193.463 7.38349C193.804 7.72219 194.203 7.99137 194.66 8.18983C195.117 8.38901 195.604 8.48836 196.123 8.48836C196.641 8.48836 197.131 8.38901 197.592 8.18983C198.053 7.99137 198.454 7.72219 198.796 7.38349C199.137 7.04504 199.407 6.64716 199.604 6.18987C199.802 5.73282 199.901 5.24209 199.901 4.71696C199.901 4.20073 199.802 3.71168 199.604 3.2503C199.407 2.78916 199.137 2.38912 198.796 2.05042C198.454 1.71196 198.053 1.44302 197.592 1.24408ZM178.023 29.3188V24.7548H189.083C189.47 24.7548 189.863 24.6997 190.264 24.5888C190.664 24.4784 191.023 24.3053 191.341 24.0702C191.658 23.8355 191.914 23.5376 192.107 23.1779C192.3 22.8188 192.397 22.3894 192.397 21.8918C192.397 21.4496 192.294 21.0619 192.087 20.73C191.879 20.3979 191.548 20.094 191.092 19.817C190.637 19.5409 190.036 19.2713 189.29 19.0081C188.545 18.7454 187.619 18.4621 186.515 18.1575C185.521 17.8812 184.471 17.5558 183.367 17.1822C182.262 16.8089 181.247 16.3183 180.322 15.7093C179.396 15.1014 178.63 14.3193 178.023 13.3651C177.415 12.4109 177.111 11.2148 177.111 9.77614C177.111 8.72518 177.311 7.74293 177.712 6.83013C178.112 5.91708 178.665 5.12904 179.369 4.46503C180.073 3.80127 180.902 3.28236 181.854 2.90905C182.807 2.5355 183.849 2.34897 184.982 2.34897H189.562V6.91297H184.982C184.568 6.91297 184.167 6.96903 183.781 7.07916C183.394 7.18979 183.042 7.36293 182.724 7.59782C182.407 7.83297 182.151 8.13062 181.958 8.48979C181.764 8.8497 181.668 9.27807 181.668 9.77614C181.668 10.274 181.772 10.6959 181.979 11.0414C182.186 11.3877 182.524 11.7126 182.994 12.0165C183.463 12.3213 184.084 12.6046 184.858 12.8673C185.631 13.1304 186.583 13.4273 187.716 13.7592C188.683 14.0363 189.711 14.3545 190.802 14.7135C191.893 15.0734 192.894 15.5506 193.806 16.1452C194.717 16.7402 195.635 17.5005 196.229 18.4272C196.823 19.3541 197.12 20.5087 197.12 21.8918C197.12 22.9433 196.919 23.9248 196.519 24.8379C196.118 25.7504 195.566 26.5389 194.862 27.2027C194.158 27.8667 193.156 28.3851 192.19 28.7587C191.223 29.132 190.187 29.3188 189.083 29.3188H178.023ZM138.229 18.8215C138.229 24.6238 133.051 29.3188 126.447 29.3188C119.843 29.3188 114.621 24.6238 114.621 18.8215V2.56004H119.4V18.8215C119.4 20.501 120.139 22.1042 121.529 23.2876C122.876 24.471 124.492 25.1201 126.447 25.1201C128.359 25.1201 129.974 24.471 131.364 23.2876C132.711 22.1042 133.45 20.501 133.45 18.8215V2.56004H138.229V18.8215ZM63.0135 20.4243L66.663 13.0569L71.9641 23.7454L63.0135 20.4243ZM66.6629 2.59798L53.368 29.3182H58.5817L61.0582 24.2797L74.7446 29.3182H79.9585L66.6629 2.59798ZM1.04492 6.79744H20.5215V2.59831H1.04492V6.79744ZM1.04492 18.0578H13.8567V13.8589H1.04492V18.0578ZM20.5218 29.3185H1.04518V25.1196H20.5218V29.3185ZM103.237 29.3188H108.625L100.152 15.0809L108.625 2.59833H103.063L90.507 21.1118V2.59833H85.7274V29.3188H90.507L97.2848 19.318L103.237 29.3188ZM149.108 2.59833H144.329V29.3188H160.492V25.12H149.108V2.59833ZM166.377 29.3188H171.156V2.59833H166.377V29.3188ZM36.357 2.59856C43.743 2.59856 49.739 7.86627 49.739 14.3556C49.739 18.516 47.2626 22.1809 43.5256 24.2803L47.1754 29.3188H41.5273L39.2966 26.2247L39.2866 26.2282L35.6371 21.1897H35.6428L33.9105 18.7978H39.5588L40.9578 20.7387C41.4895 20.4431 41.9877 20.0968 42.4394 19.6997C44.0905 18.2873 44.9595 16.3784 44.9595 14.3556C44.9595 12.3325 44.0905 10.4236 42.4394 9.01148C40.832 7.59912 38.6596 6.79745 36.357 6.79745H31.0636V21.9137V26.1124V29.3188H26.2768V2.59856H36.357Z" fill="#FCFCFC"/>
</g>
</svg>
