<svg width="92" height="52" viewBox="0 0 92 52" fill="none" xmlns="http://www.w3.org/2000/svg">
<path d="M0.859375 48.3574H1.91865C2.51883 48.3574 2.84642 48.7137 2.84642 49.1919C2.84642 49.6702 2.51644 50.0241 1.91865 50.0241H1.37825V50.9327H1.6628V51.1288H0.859375V50.9327H1.10805V48.5535H0.859375V48.3574ZM1.89474 49.8136C2.34906 49.8136 2.57144 49.5697 2.57144 49.1943C2.57144 48.8189 2.34428 48.5702 1.89474 48.5702H1.37825V49.8136H1.89474Z" fill="white"/>
<path d="M4.14186 49.9906H3.5345V50.9327H3.81905V51.1288H3.01562V50.9327H3.2643V48.5535H3.01562V48.3574H4.09164C4.68943 48.3574 5.01701 48.7161 5.01701 49.1848C5.01701 49.5578 4.80899 49.8495 4.40966 49.9475L5.02419 50.9327H5.28004V51.1288H4.84485L4.13946 49.9906H4.14186ZM4.05577 49.7802C4.52922 49.7802 4.73964 49.5482 4.73964 49.18C4.73964 48.8117 4.52444 48.5702 4.05577 48.5702H3.5345V49.7802H4.05577Z" fill="white"/>
<path d="M5.41406 49.7422C5.41406 48.9244 6.05011 48.3242 6.83679 48.3242C7.62348 48.3242 8.26431 48.9244 8.26431 49.7422C8.26431 50.5599 7.62826 51.1601 6.83679 51.1601C6.04533 51.1601 5.41406 50.5623 5.41406 49.7422ZM7.98215 49.7422C7.98215 49.0655 7.49675 48.5562 6.83679 48.5562C6.17684 48.5562 5.69144 49.0655 5.69144 49.7422C5.69144 50.4189 6.17684 50.9282 6.83679 50.9282C7.49675 50.9282 7.98215 50.4189 7.98215 49.7422Z" fill="white"/>
<path d="M10.8871 50.823C10.6862 51.0238 10.385 51.1601 9.98324 51.1601C9.21569 51.1601 8.58203 50.6149 8.58203 49.7422C8.58203 48.9244 9.21329 48.3242 9.97607 48.3242C10.3587 48.3242 10.6528 48.4486 10.8154 48.6733V48.3553H11.0353V49.0703H10.8273C10.7245 48.7307 10.4328 48.5609 9.99042 48.5609C9.33046 48.5609 8.85701 49.0655 8.85701 49.7422C8.85701 50.4189 9.34959 50.9282 10.0048 50.9282C10.4376 50.9282 10.7054 50.7608 10.8727 50.5934V50.01H10.0382V49.7996H11.1262V51.129H10.8847V50.823H10.8871Z" fill="white"/>
<path d="M12.6438 49.9906H12.0365V50.9327H12.321V51.1288H11.5176V50.9327H11.7663V48.5535H11.5176V48.3574H12.5936C13.1938 48.3574 13.519 48.7161 13.519 49.1848C13.519 49.5578 13.3109 49.8495 12.9116 49.9475L13.5261 50.9327H13.782V51.1288H13.3468L12.6414 49.9906H12.6438ZM12.5577 49.7802C13.0312 49.7802 13.2416 49.5482 13.2416 49.18C13.2416 48.8117 13.0264 48.5702 12.5577 48.5702H12.0365V49.7802H12.5577Z" fill="white"/>
<path d="M16.6024 51.1288H15.8445V50.9327H16.1099L15.9114 50.3827H14.668L14.4648 50.9327H14.7326V51.1288H13.9961V50.9327H14.2065L15.0745 48.5535H14.8736V48.3574H15.7225V48.5535H15.5193L16.3872 50.9327H16.6024V51.1288ZM14.7397 50.158H15.8349L15.2873 48.6133L14.7373 50.158H14.7397Z" fill="white"/>
<path d="M19.9216 51.1288H19.1325V50.9327H19.4123V48.7735L18.4295 50.2895H18.3195L17.3392 48.7567V50.9327H17.6237V51.1288H16.849V50.9327H17.0976V48.5535H16.8418V48.3574H17.3726L18.3841 49.9356L19.3979 48.3574H19.9312V48.5535H19.6753V50.9327H19.924V51.1288H19.9216Z" fill="white"/>
<path d="M22.7802 51.1288H22.0222V50.9327H22.2876L22.0891 50.3827H20.8457L20.6425 50.9327H20.9103V51.1288H20.1738V50.9327H20.3842L21.2522 48.5535H21.0538V48.3574H21.9002V48.5535H21.697L22.565 50.9327H22.7802V51.1288ZM20.9175 50.158H22.0126L21.465 48.6133L20.9151 50.158H20.9175Z" fill="white"/>
<path d="M23.7148 49.7422C23.7148 48.9244 24.3509 48.3242 25.1376 48.3242C25.9243 48.3242 26.5627 48.9244 26.5627 49.7422C26.5627 50.5599 25.9267 51.1601 25.1376 51.1601C24.3485 51.1601 23.7148 50.5623 23.7148 49.7422ZM26.2829 49.7422C26.2829 49.0655 25.7975 48.5562 25.1376 48.5562C24.4776 48.5562 23.9922 49.0655 23.9922 49.7422C23.9922 50.4189 24.4776 50.9282 25.1376 50.9282C25.7975 50.9282 26.2829 50.4189 26.2829 49.7422Z" fill="white"/>
<path d="M26.8286 48.3574H27.8878C28.488 48.3574 28.818 48.7137 28.818 49.1919C28.818 49.6702 28.488 50.0241 27.8878 50.0241H27.3451V50.9327H27.6296V51.1288H26.8262V50.9327H27.0749V48.5535H26.8262V48.3574H26.8286ZM27.8639 49.8136C28.3159 49.8136 28.5406 49.5697 28.5406 49.1943C28.5406 48.8189 28.3135 48.5702 27.8639 48.5702H27.3451V49.8136H27.8639Z" fill="white"/>
<path d="M30.6956 48.5789H29.5048V49.6286H30.6167V49.8414H29.5048V50.9103H30.7529V50.5277H30.9682V51.1327H28.9883V50.9366H29.237V48.5574H28.9883V48.3613H30.9108V48.9663H30.6956V48.5837V48.5789Z" fill="white"/>
<path d="M32.4153 49.9906H31.8079V50.9327H32.0925V51.1288H31.2891V50.9327H31.5377V48.5535H31.2891V48.3574H32.3651C32.9629 48.3574 33.2905 48.7161 33.2905 49.1848C33.2905 49.5578 33.0824 49.8495 32.6831 49.9475L33.3 50.9327H33.5559V51.1288H33.1183L32.4129 49.9906H32.4153ZM32.3292 49.7802C32.8027 49.7802 33.0131 49.5482 33.0131 49.18C33.0131 48.8117 32.7979 48.5702 32.3292 48.5702H31.8079V49.7802H32.3292Z" fill="white"/>
<path d="M36.3744 51.1288H35.6164V50.9327H35.8818L35.6809 50.3827H34.4375L34.2343 50.9327H34.5021V51.1288H33.7656V50.9327H33.976L34.844 48.5535H34.6456V48.3574H35.492V48.5535H35.2888L36.1568 50.9327H36.3744V51.1288ZM34.5117 50.158H35.6092L35.064 48.6133L34.5141 50.158H34.5117Z" fill="white"/>
<path d="M37.8003 48.3227C38.2044 48.3227 38.4961 48.4614 38.6635 48.7005V48.3562H38.8835V49.1309H38.685C38.587 48.7388 38.2331 48.557 37.817 48.557C37.1571 48.557 36.6884 49.0664 36.6884 49.743C36.6884 50.4197 37.1738 50.9291 37.8266 50.9291C38.2283 50.9291 38.5559 50.7545 38.7711 50.4604L38.9743 50.6086C38.7065 50.9673 38.3192 51.161 37.8194 51.161C37.0256 51.161 36.4062 50.568 36.4062 49.743C36.411 48.9157 37.0256 48.3203 37.8003 48.3203V48.3227Z" fill="white"/>
<path d="M39.2285 48.3574H39.9913V48.5535H39.7426V50.9327H39.9913V51.1288H39.2285V50.9327H39.4772V48.5535H39.2285V48.3574Z" fill="white"/>
<path d="M40.2539 49.7422C40.2539 48.9244 40.89 48.3242 41.6766 48.3242C42.4633 48.3242 43.1042 48.9244 43.1042 49.7422C43.1042 50.5599 42.4681 51.1601 41.6766 51.1601C40.8852 51.1601 40.2539 50.5623 40.2539 49.7422ZM42.822 49.7422C42.822 49.0655 42.3366 48.5562 41.6766 48.5562C41.0167 48.5562 40.5313 49.0655 40.5313 49.7422C40.5313 50.4189 41.0167 50.9282 41.6766 50.9282C42.3366 50.9282 42.822 50.4189 42.822 49.7422Z" fill="white"/>
<path d="M46.0046 48.5535H45.7559V51.1288H45.5814L43.8598 48.74V50.9327H44.1324V51.1288H43.3672V50.9327H43.6159V48.5535H43.3672V48.3574H43.8837L45.5097 50.6194V48.5535H45.2323V48.3574H46.0022V48.5535H46.0046Z" fill="white"/>
<path d="M48.7303 51.1288H47.9723V50.9327H48.2353L48.0368 50.3827H46.7934L46.5902 50.9327H46.858V51.1288H46.1191V50.9327H46.332L47.1999 48.5535H46.9991V48.3574H47.8479V48.5535H47.6447L48.5127 50.9327H48.7279V51.1288H48.7303ZM46.8676 50.158H47.9651L47.4199 48.6133L46.87 50.158H46.8676Z" fill="white"/>
<path d="M48.975 48.3574H49.7402V48.5535H49.4915V50.9088H50.5843V50.5262H50.8019V51.1312H48.9727V50.9351H49.2213V48.5559H48.9727V48.3598L48.975 48.3574Z" fill="white"/>
<path d="M52.9012 49.9906H52.2938V50.9327H52.5784V51.1288H51.7773V50.9327H52.026V48.5535H51.7773V48.3574H52.851C53.4511 48.3574 53.7763 48.7161 53.7763 49.1848C53.7763 49.5578 53.5683 49.8495 53.169 49.9475L53.7859 50.9327H54.0418V51.1288H53.6042L52.8988 49.9906H52.9012ZM52.8151 49.7802C53.2885 49.7802 53.5014 49.5482 53.5014 49.18C53.5014 48.8117 53.2862 48.5702 52.8151 48.5702H52.2938V49.7802H52.8151Z" fill="white"/>
<path d="M56.0042 48.5789H54.8158V49.6286H55.9276V49.8414H54.8158V50.9103H56.0615V50.5277H56.2767V51.1327H54.2969V50.9366H54.5456V48.5574H54.2969V48.3613H56.2194V48.9663H56.0042V48.5837V48.5789Z" fill="white"/>
<path d="M58.8817 50.823C58.6832 51.0238 58.3819 51.1601 57.9754 51.1601C57.2103 51.1601 56.5742 50.6149 56.5742 49.7422C56.5742 48.9244 57.2055 48.3242 57.9683 48.3242C58.3508 48.3242 58.645 48.4486 58.8075 48.6733V48.3553H59.0275V49.0703H58.8195C58.7191 48.7307 58.425 48.5609 57.985 48.5609C57.325 48.5609 56.8516 49.0655 56.8516 49.7422C56.8516 50.4189 57.3442 50.9282 58.0017 50.9282C58.4345 50.9282 58.7023 50.7608 58.8697 50.5934V50.01H58.0352V49.7996H59.1232V51.129H58.8817V50.823Z" fill="white"/>
<path d="M59.5156 48.3574H60.2784V48.5535H60.0297V50.9327H60.2784V51.1288H59.5156V50.9327H59.7643V48.5535H59.5156V48.3574Z" fill="white"/>
<path d="M60.5371 49.7422C60.5371 48.9244 61.1732 48.3242 61.9598 48.3242C62.7465 48.3242 63.3874 48.9244 63.3874 49.7422C63.3874 50.5599 62.7513 51.1601 61.9598 51.1601C61.1684 51.1601 60.5371 50.5623 60.5371 49.7422ZM63.1052 49.7422C63.1052 49.0655 62.6198 48.5562 61.9598 48.5562C61.2999 48.5562 60.8145 49.0655 60.8145 49.7422C60.8145 50.4189 61.2999 50.9282 61.9598 50.9282C62.6198 50.9282 63.1052 50.4189 63.1052 49.7422Z" fill="white"/>
<path d="M66.2898 48.5535H66.0411V51.1288H65.8665L64.1473 48.74V50.9327H64.4199V51.1288H63.6523V50.9327H63.901V48.5535H63.6523V48.3574H64.1712L65.7972 50.6194V48.5535H65.5222V48.3574H66.2922V48.5535H66.2898Z" fill="white"/>
<path d="M69.013 51.1288H68.255V50.9327H68.5205L68.3196 50.3827H67.0786L66.873 50.9327H67.1408V51.1288H66.4043V50.9327H66.6147L67.4827 48.5535H67.2818V48.3574H68.1307V48.5535H67.9275L68.7954 50.9327H69.0106V51.1288H69.013ZM67.1503 50.158H68.2455L67.7003 48.6133L67.1503 50.158Z" fill="white"/>
<path d="M69.2578 48.3574H70.023V48.5535H69.7743V50.9088H70.867V50.5262H71.087V51.1312H69.2578V50.9351H69.5065V48.5559H69.2578V48.3598V48.3574Z" fill="white"/>
<path d="M72.0605 48.3574H73.0027C73.9209 48.3574 74.466 48.9241 74.466 49.7443C74.466 50.5645 73.9233 51.1312 73.0027 51.1312H72.0605V50.9351H72.3092V48.5559H72.0605V48.3598V48.3574ZM72.9764 50.9088C73.7965 50.9088 74.1863 50.4234 74.1863 49.7419C74.1863 49.0604 73.7941 48.575 72.9764 48.575H72.577V50.9064H72.9764V50.9088Z" fill="white"/>
<path d="M74.7891 49.7422C74.7891 48.9244 75.4251 48.3242 76.2118 48.3242C76.9985 48.3242 77.6393 48.9244 77.6393 49.7422C77.6393 50.5599 77.0033 51.1601 76.2118 51.1601C75.4203 51.1601 74.7891 50.5623 74.7891 49.7422ZM77.3548 49.7422C77.3548 49.0655 76.8694 48.5562 76.2094 48.5562C75.5494 48.5562 75.064 49.0655 75.064 49.7422C75.064 50.4189 75.5494 50.9282 76.2094 50.9282C76.8694 50.9282 77.3548 50.4189 77.3548 49.7422Z" fill="white"/>
<path d="M81.2922 48.5535H81.0435V51.1288H80.8689L79.1473 48.74V50.9327H79.4199V51.1288H78.6523V50.9327H78.901V48.5535H78.6523V48.3574H79.1688L80.7948 50.6194V48.5535H80.5174V48.3574H81.2874V48.5535H81.2922Z" fill="white"/>
<path d="M81.5391 49.7422C81.5391 48.9244 82.1751 48.3242 82.9618 48.3242C83.7485 48.3242 84.3869 48.9244 84.3869 49.7422C84.3869 50.5599 83.7509 51.1601 82.9618 51.1601C82.1727 51.1601 81.5391 50.5623 81.5391 49.7422ZM84.1048 49.7422C84.1048 49.0655 83.6194 48.5562 82.9594 48.5562C82.2994 48.5562 81.814 49.0655 81.814 49.7422C81.814 50.4189 82.2994 50.9282 82.9594 50.9282C83.6194 50.9282 84.1048 50.4189 84.1048 49.7422Z" fill="white"/>
<path d="M85.7825 49.9906H85.1751V50.9327H85.4597V51.1288H84.6562V50.9327H84.9049V48.5535H84.6562V48.3574H85.7323C86.3324 48.3574 86.6576 48.7161 86.6576 49.1848C86.6576 49.5578 86.4496 49.8495 86.0503 49.9475L86.6672 50.9327H86.9231V51.1288H86.4879L85.7825 49.9906ZM85.6964 49.7802C86.1675 49.7802 86.3803 49.5482 86.3803 49.18C86.3803 48.8117 86.1651 48.5702 85.6964 48.5702H85.1751V49.7802H85.6964Z" fill="white"/>
<path d="M88.8918 48.5778H88.1984V50.9331H88.4686V51.1292H87.6651V50.9331H87.9329V48.5778H87.2395V48.9604H87.0195V48.3555H89.1046V48.9604H88.8894V48.5778H88.8918Z" fill="white"/>
<path d="M91.094 48.5789H89.9056V49.6286H91.0175V49.8414H89.9056V50.9103H91.1514V50.5277H91.3666V51.1327H89.3867V50.9366H89.6354V48.5574H89.3867V48.3613H91.3092V48.9663H91.094V48.5837V48.5789Z" fill="white"/>
<path d="M22.1254 6.68705C22.1254 13.0236 27.5413 15.9719 31.7235 12.794C32.8664 12.0982 33.5288 10.7735 33.5288 9.35318V9.30297C33.5288 9.20254 33.5264 9.09972 33.5192 8.99929C34.05 9.84576 34.3465 10.8859 34.3465 12.005C34.3465 16.4931 29.4758 18.8795 24.6791 17.1794C21.9413 15.5726 20.1742 12.6936 20.1742 9.35318V9.30297C20.1742 6.67988 21.2765 4.32699 23.0842 2.65319C22.4578 3.88941 22.1254 5.28823 22.1254 6.68705ZM49.6236 5.16629C50.9889 5.16629 51.8737 5.84537 51.8737 7.00986C53.2605 6.57706 53.734 5.67321 53.734 4.68806C53.734 1.93106 50.6661 0.446161 47.2827 0.446161L41.1255 0.450943V5.16629H49.6212H49.6236ZM39.4947 9.30297C39.4947 14.3483 35.4154 18.3917 30.0903 18.5304C33.6914 18.4132 35.9462 15.3693 35.9462 12.0026V11.9189C35.9462 8.44694 33.567 5.31454 29.8082 5.30497C27.5509 5.31454 26.1401 7.18441 26.1401 9.25036V9.30058C26.1401 11.3833 27.5605 13.2675 29.8058 13.2962C26.078 13.2579 23.7227 10.1351 23.7227 6.68466V6.59858C23.7227 3.16489 26.0636 0.0683594 29.789 0.0683594H29.856C35.3174 0.0683594 39.4923 4.11418 39.4923 9.24797V9.29819L39.4947 9.30297ZM6.70967 0.448552H0.841797L12.678 18.1526H18.5459L6.70967 0.448552ZM12.6804 0.448552H18.5482V14.7165L12.6804 6.06057V0.448552ZM0.841797 4.06636V18.155H6.70967V12.7271L0.841797 4.06636ZM55.195 13.4707L58.4015 18.155H51.6489L49.3319 14.6448C51.2854 14.5491 53.3586 14.2957 54.9295 13.5975C55.018 13.5568 55.1065 13.5162 55.195 13.4731M54.2792 12.1365C56.3547 11.2111 57.7702 9.30536 57.7702 6.7277V6.67749C57.7702 4.85544 57.2155 3.54031 56.1514 2.47864C55.0324 1.35719 53.2916 0.608759 50.6494 0.474854C50.3959 0.455725 50.1329 0.448552 49.8651 0.448552L49.7814 0.453334C50.0827 0.453334 50.372 0.460508 50.6518 0.474854C53.5259 0.675711 55.3408 2.02671 55.3408 4.5685V4.69045C55.3408 7.33745 53.2534 8.87735 49.8053 8.87735H48.3132V13.1001C48.3132 13.1001 52.206 13.0619 54.2815 12.1389M58.5234 0.448552H74.8717V5.09694H58.5234V0.448552ZM76.2418 5.09694H91.3085V0.448552H76.2418V5.09694ZM76.2418 13.5281H91.3085V18.1765H76.2418V13.5281ZM41.1278 18.155H46.9933V6.98356H41.1278V18.155ZM69.6638 18.155H63.7959V6.98356H69.6638V18.155ZM76.2418 11.6319H87.9967V6.98356H76.2418V11.6319Z" fill="white"/>
<path d="M65.3865 37.5508H46.5586V43.421H65.3865V37.5508Z" fill="white"/>
<path d="M55.8005 31.3503C60.1763 28.1988 62.6823 20.6523 56.3744 20.6523C61.4843 20.6523 65.1571 23.7178 65.1571 27.9669V28.0314C65.1571 31.4484 63.335 33.3015 60.6522 35.0231L60.425 35.169H50.0977L55.7982 31.3527L55.8005 31.3503Z" fill="white"/>
<path d="M70.6003 23.895C68.3144 26.0135 66.918 28.9905 66.918 32.3094V32.374C66.918 36.5991 69.1537 40.2432 72.6209 42.2757C78.6896 44.4254 84.8516 41.4077 84.8516 35.7288C84.8516 34.3132 84.4762 32.9981 83.8043 31.9268C83.8114 32.0536 83.8186 32.1803 83.8186 32.3094V32.374C83.8186 34.1697 82.9769 35.8483 81.5327 36.7259C76.2387 40.7454 69.388 37.0152 69.388 28.9977C69.388 27.2282 69.8065 25.4588 70.6003 23.8926" fill="white"/>
<path d="M91.3695 32.3077C91.3695 38.6921 86.207 43.8091 79.4688 43.9837C84.0239 43.8378 86.8765 39.9833 86.8765 35.7247V35.6194C86.8765 31.2293 83.8661 27.2624 79.1101 27.2504C76.2527 27.2624 74.4689 29.6272 74.4689 32.2431V32.3077C74.4689 34.9451 76.2646 37.3291 79.1053 37.3626C74.39 37.3148 71.4082 33.3646 71.4082 28.9984V28.8908C71.4082 24.546 74.3732 20.627 79.0862 20.627H79.1699C86.0827 20.627 91.3647 25.7488 91.3647 32.2431V32.3077H91.3695Z" fill="white"/>
<path d="M12.4341 24.4834C12.9243 21.8245 10.196 20.4902 7.45332 20.9995C4.68676 21.6499 2.75711 23.2065 0.841797 25.5738L5.76039 29.7535C7.61353 27.776 8.79236 26.975 10.0716 26.975C10.5451 26.975 10.942 27.0706 11.2552 27.2404C11.8602 26.3103 12.2787 25.3275 12.4341 24.4834Z" fill="white"/>
<path d="M19.7205 37.5508H0.892578V43.421H19.7205V37.5508Z" fill="white"/>
<path d="M4.43945 35.1651H14.7644L14.9892 35.0192C17.6721 33.2976 19.4941 31.4421 19.4941 28.0275V27.963C19.4941 23.7139 15.8213 20.6484 10.709 20.6484C17.0193 20.6484 14.5134 28.1949 10.1376 31.3464L4.43945 35.1627V35.1651Z" fill="white"/>
<path d="M23.7235 28.9992C23.7235 37.0167 30.5742 40.7469 35.8658 36.7274C37.3124 35.8474 38.1517 34.1712 38.1517 32.3755V32.3109C38.1517 32.1818 38.1469 32.0551 38.1397 31.9283C38.8093 32.9972 39.1895 34.3147 39.1895 35.7303C39.1895 41.4092 33.0251 44.4269 26.9564 42.2772C23.4892 40.2448 21.2559 36.6006 21.2559 32.3755V32.3109C21.2559 28.992 22.6523 26.015 24.9382 23.8965C24.1468 25.4603 23.7259 27.2297 23.7259 29.0016" fill="white"/>
<path d="M45.7007 32.2431C45.7007 25.7464 40.421 20.627 33.5082 20.627H33.4221C28.7068 20.627 25.7441 24.546 25.7441 28.8908V28.9984C25.7441 33.367 28.7235 37.3148 33.4412 37.3626C30.6006 37.3267 28.8024 34.9428 28.8024 32.3077V32.2431C28.8024 29.6272 30.5862 27.2624 33.4436 27.2504C38.1996 27.2624 41.2077 31.2293 41.2077 35.6194V35.7247C41.2077 39.9833 38.3551 43.8354 33.7975 43.9837C40.5382 43.8091 45.6983 38.6897 45.6983 32.3077V32.2431H45.7007Z" fill="white"/>
<path d="M56.9174 27.2404C56.6041 27.0706 56.2072 26.975 55.7313 26.975C54.4569 26.975 53.2732 27.776 51.4201 29.7535L46.5039 25.5738C48.4192 23.2065 50.3513 21.6499 53.1154 20.9995C55.8581 20.4902 58.5888 21.8245 58.0986 24.4834C57.9408 25.3275 57.5223 26.3103 56.9174 27.2404Z" fill="white"/>
</svg>
