<svg width="106" height="33" viewBox="0 0 106 33" fill="none" xmlns="http://www.w3.org/2000/svg">
<path d="M26.4941 29.808L33.7537 23.6482C34.4744 23.0463 35.0912 22.5039 35.589 22.0061C36.0943 21.5157 36.4955 21.0475 36.8076 20.6091C37.1197 20.1707 37.3426 19.7323 37.4838 19.3162C37.625 18.8927 37.6993 18.4469 37.6993 17.9639C37.6993 16.9236 37.3723 16.1137 36.7184 15.5416C36.0646 14.9694 35.2546 14.6871 34.2961 14.6871C33.3376 14.6871 32.4831 14.9471 31.7475 15.4673C31.0119 15.9874 30.2391 16.7825 29.4143 17.845L26.7914 15.7942C27.2966 15.0883 27.8019 14.4642 28.3295 13.9069C28.8496 13.3496 29.4143 12.8815 30.031 12.5099C30.6403 12.131 31.3165 11.8412 32.0521 11.6406C32.7803 11.44 33.6199 11.3359 34.5636 11.3359C35.589 11.3359 36.5253 11.4845 37.3798 11.7892C38.2343 12.0864 38.9624 12.5174 39.5792 13.0672C40.1885 13.6171 40.6714 14.2858 41.0132 15.0586C41.355 15.8314 41.5259 16.6933 41.5259 17.637V17.6964C41.5259 18.5212 41.4145 19.2717 41.1916 19.9404C40.9687 20.6166 40.6343 21.263 40.181 21.8798C39.7278 22.5039 39.1556 23.1281 38.4646 23.7597C37.7736 24.3912 36.9636 25.0897 36.0423 25.855L31.7029 29.4737H41.734V32.7282H26.4941V29.808Z" fill="#F0F8FC"/>
<path d="M54.4525 32.7303C52.8253 32.7303 51.3392 32.4479 49.9943 31.8758C48.6493 31.3036 47.4902 30.5234 46.5317 29.5426C45.5657 28.5618 44.8152 27.41 44.2728 26.0949C43.7304 24.7797 43.4629 23.3753 43.4629 21.8892V21.8298C43.4629 20.3437 43.7304 18.9393 44.2728 17.6241C44.8152 16.309 45.5806 15.1572 46.5614 14.1616C47.5422 13.1659 48.7088 12.3782 50.0611 11.7987C51.406 11.2191 52.8921 10.9219 54.5194 10.9219C56.1467 10.9219 57.6328 11.2042 58.9777 11.7838C60.3226 12.356 61.4817 13.1361 62.4403 14.117C63.4062 15.0978 64.1567 16.2495 64.6991 17.5647C65.2415 18.8799 65.509 20.2842 65.509 21.7703V21.8298C65.509 23.3159 65.2341 24.7128 64.6991 26.028C64.1567 27.3432 63.3914 28.5023 62.4105 29.4906C61.4297 30.4863 60.2631 31.2739 58.9182 31.8535C57.5733 32.4405 56.0872 32.7303 54.46 32.7303M54.5194 29.3271C55.5597 29.3271 56.5108 29.1339 57.3876 28.7401C58.2569 28.3463 59 27.8187 59.6241 27.1426C60.2409 26.4664 60.7313 25.6788 61.0805 24.7797C61.4297 23.8806 61.6081 22.9146 61.6081 21.8892V21.8298C61.6081 20.8044 61.4372 19.8384 61.0805 18.9245C60.7313 18.0105 60.2409 17.2155 59.6093 16.5467C58.9777 15.8706 58.2272 15.3356 57.3504 14.9343C56.4736 14.5331 55.5077 14.3325 54.4674 14.3325C53.4271 14.3325 52.476 14.5256 51.5992 14.9195C50.7299 15.3133 49.9868 15.8408 49.3627 16.517C48.7459 17.1857 48.2555 17.9808 47.9063 18.8799C47.5571 19.779 47.3787 20.7449 47.3787 21.7703V21.8298C47.3787 22.8552 47.5571 23.8211 47.9063 24.7351C48.2555 25.649 48.7459 26.4441 49.3775 27.1128C50.0091 27.7816 50.767 28.324 51.6438 28.7252C52.5206 29.1265 53.4791 29.3271 54.5194 29.3271Z" fill="#F0F8FC"/>
<path d="M66.9488 29.808L74.2084 23.6482C74.9291 23.0463 75.5384 22.5039 76.0437 22.0061C76.549 21.5157 76.9502 21.0475 77.2623 20.6091C77.5744 20.1707 77.7973 19.7323 77.9385 19.3162C78.0797 18.8927 78.1465 18.4469 78.1465 17.9639C78.1465 16.9236 77.8196 16.1137 77.1657 15.5416C76.5118 14.9694 75.7019 14.6871 74.7434 14.6871C73.7849 14.6871 72.9304 14.9471 72.1947 15.4673C71.4591 15.9874 70.6789 16.7825 69.8616 17.845L67.2386 15.7942C67.7439 15.0883 68.2492 14.4642 68.7767 13.9069C69.2969 13.3496 69.869 12.8815 70.4783 12.5099C71.0876 12.131 71.7638 11.8412 72.4994 11.6406C73.2276 11.44 74.0672 11.3359 75.0109 11.3359C76.0363 11.3359 76.9725 11.4845 77.827 11.7892C78.6815 12.0864 79.4171 12.5174 80.0264 13.0672C80.6432 13.6171 81.1113 14.2858 81.4605 15.0586C81.8023 15.8314 81.9732 16.6933 81.9732 17.637V17.6964C81.9732 18.5212 81.8618 19.2717 81.6388 19.9404C81.4159 20.6166 81.0816 21.263 80.6283 21.8798C80.175 22.5039 79.6029 23.1281 78.9119 23.7597C78.2134 24.3912 77.4109 25.0897 76.4895 25.855L72.1502 29.4737H82.1813V32.7282H66.9414V29.808H66.9488Z" fill="#F0F8FC"/>
<path d="M94.9053 32.7303C93.278 32.7303 91.7919 32.4479 90.447 31.8758C89.1021 31.3036 87.9429 30.5234 86.9844 29.5426C86.0185 28.5618 85.268 27.41 84.7256 26.0949C84.1831 24.7797 83.9082 23.3753 83.9082 21.8892V21.8298C83.9082 20.3437 84.1831 18.9393 84.7256 17.6241C85.268 16.309 86.0333 15.1572 87.0141 14.1616C87.995 13.1659 89.1615 12.3782 90.5064 11.7987C91.8514 11.2191 93.3375 10.9219 94.9647 10.9219C96.592 10.9219 98.0781 11.2042 99.423 11.7838C100.768 12.356 101.92 13.1361 102.886 14.117C103.844 15.0978 104.602 16.2495 105.144 17.5647C105.687 18.8799 105.954 20.2842 105.954 21.7703V21.8298C105.954 23.3159 105.679 24.7128 105.144 26.028C104.602 27.3432 103.837 28.5023 102.856 29.4906C101.868 30.4863 100.708 31.2739 99.3635 31.8535C98.0186 32.4405 96.5325 32.7303 94.9053 32.7303ZM94.9647 29.3271C96.005 29.3271 96.9561 29.1339 97.8254 28.7401C98.6948 28.3463 99.4379 27.8187 100.062 27.1426C100.679 26.4664 101.162 25.6788 101.518 24.7797C101.868 23.8806 102.046 22.9146 102.046 21.8892V21.8298C102.046 20.8044 101.868 19.8384 101.518 18.9245C101.169 18.0105 100.679 17.2155 100.047 16.5467C99.4156 15.8706 98.6651 15.3356 97.7809 14.9343C96.9041 14.5331 95.9381 14.3325 94.9053 14.3325C93.8724 14.3325 92.9065 14.5256 92.0446 14.9195C91.1752 15.3133 90.4247 15.8408 89.808 16.517C89.1913 17.1857 88.7083 17.9808 88.3516 18.8799C88.0024 19.779 87.8241 20.7449 87.8241 21.7703V21.8298C87.8241 22.8552 87.995 23.8211 88.3516 24.7351C88.7008 25.649 89.1913 26.4441 89.8228 27.1128C90.4544 27.7816 91.2123 28.324 92.0891 28.7252C92.9734 29.1265 93.9245 29.3271 94.9721 29.3271" fill="#F0F8FC"/>
<path d="M28.7753 4.44166C28.6713 4.44166 28.5375 4.44166 28.3963 4.4268V5.69741C28.6638 5.71227 28.9313 5.75685 29.1617 5.80144V6.50733H26.4941V5.80144C26.7245 5.75685 26.992 5.71227 27.2595 5.69741V1.41004C26.9994 1.39518 26.7245 1.3506 26.4941 1.30601V0.59269H27.1777C27.4527 0.59269 28.2254 0.555537 28.8422 0.555537C30.2837 0.555537 31.0862 1.23171 31.0862 2.39086C31.0862 3.55001 30.2094 4.44166 28.7753 4.44166ZM28.7902 1.49177C28.649 1.49177 28.5301 1.49177 28.3963 1.49177V3.46827C28.5078 3.48314 28.6267 3.498 28.7307 3.498C29.4217 3.48314 29.9047 3.10418 29.9047 2.46516C29.9047 1.87073 29.5703 1.49177 28.7902 1.49177ZM34.2813 6.60393C32.4757 6.60393 31.5914 5.45964 31.5914 3.62431C31.5914 1.67011 32.8992 0.496094 34.4819 0.496094C36.0646 0.496094 37.1717 1.44719 37.1717 3.46827C37.1717 5.48936 35.8788 6.60393 34.2738 6.60393M34.3704 1.5215C33.5531 1.5215 32.8026 2.16795 32.8026 3.498C32.8026 4.75374 33.293 5.56366 34.3556 5.56366C35.1283 5.56366 35.9457 4.96923 35.9457 3.55001C35.9457 2.23482 35.3884 1.5215 34.3704 1.5215ZM41.0727 6.50733L39.6238 4.06271H39.4677V5.68998C39.6386 5.70484 39.8244 5.73456 40.0027 5.78658V6.4999H37.5655V5.79401C37.7959 5.74942 38.0634 5.70484 38.3309 5.68998V1.41004C38.0708 1.39518 37.7959 1.3506 37.5655 1.30601V0.59269H38.2491C38.4795 0.59269 39.2968 0.555537 40.025 0.555537C41.3328 0.555537 42.1724 1.0088 42.1724 2.21996C42.1724 3.04474 41.6077 3.65404 40.7755 3.82494C40.8795 3.96611 40.9835 4.11472 41.0727 4.2559L41.9866 5.68255C42.1501 5.71227 42.3582 5.74199 42.5662 5.77915V6.50733H41.0653H41.0727ZM39.9061 1.49177C39.7501 1.49177 39.5866 1.49177 39.4677 1.51407V3.22307C39.5494 3.22307 39.6981 3.23793 39.869 3.23793C40.56 3.23793 40.9761 2.8887 40.9761 2.33885C40.9761 1.78899 40.6343 1.49177 39.9061 1.49177ZM46.6158 2.26454C46.5787 1.99705 46.5266 1.75927 46.5118 1.53636H45.5978V5.70484C45.8579 5.7197 46.1328 5.76428 46.3632 5.80887V6.51476H43.6956V5.80887C43.926 5.76428 44.1935 5.7197 44.461 5.70484V1.53636H43.5545C43.5396 1.75927 43.495 1.99705 43.4504 2.26454H42.6034V0.60012H47.448V2.26454H46.6084H46.6158ZM53.2141 1.41747V4.24847C53.2141 5.8163 52.3447 6.61136 50.7694 6.61136C48.9044 6.61136 48.4809 5.59338 48.4809 4.47139V1.41004C48.2877 1.39518 48.0945 1.35803 47.9236 1.31344V0.59269H50.2419V1.31344C50.0412 1.36546 49.8109 1.39518 49.6103 1.41004V4.38965C49.6103 5.1327 49.8481 5.66026 50.8289 5.66026C51.7057 5.66026 52.0772 5.28874 52.0772 4.28562V1.41004C51.8691 1.39518 51.6388 1.36546 51.4456 1.31344V0.59269H53.7416V1.31344C53.5781 1.35803 53.3924 1.39518 53.1992 1.41004M59.0767 4.22618V6.23983C58.4897 6.47018 57.7541 6.60393 57.0333 6.60393C55.1683 6.60393 54.0611 5.49679 54.0611 3.69862C54.0611 1.90045 55.3243 0.510955 57.3379 0.510955C57.8952 0.510955 58.4451 0.59269 58.9875 0.733868V2.31655H58.1107C58.0587 2.06392 58.0364 1.83358 58.0067 1.60323C57.7689 1.53636 57.5163 1.51407 57.2785 1.51407C56.1342 1.51407 55.302 2.24225 55.302 3.58716C55.302 4.84291 55.9856 5.57852 57.1893 5.57852C57.4717 5.57852 57.7169 5.54137 57.9398 5.4745V4.24104C57.6798 4.21875 57.4048 4.1816 57.1893 4.12958V3.42369H59.5745V4.15188C59.411 4.18903 59.2476 4.21132 59.0841 4.24104M63.2006 6.52962V5.82373C63.3863 5.78658 63.6241 5.74199 63.8247 5.72713L63.5721 5.02124H61.4173L61.1721 5.72713C61.3727 5.74199 61.6105 5.78658 61.7962 5.82373V6.52962H59.5671V5.82373C59.7083 5.77914 59.8792 5.74199 60.0278 5.73456L61.8334 0.614981H63.2303L65.0731 5.73456C65.2217 5.74199 65.4 5.77914 65.5337 5.82373V6.52962H63.2006ZM62.7622 2.68065C62.6507 2.35371 62.5616 2.07878 62.4947 1.75184H62.4873C62.4129 2.04906 62.3312 2.39086 62.2049 2.7178L61.6996 4.12958H63.2972L62.7696 2.67322L62.7622 2.68065ZM65.8012 6.52962V5.82373C66.0316 5.77914 66.3065 5.73456 66.5666 5.7197V1.41004C66.3065 1.39518 66.0316 1.3506 65.8012 1.30601V0.59269H68.4688V1.30601C68.2384 1.3506 67.9709 1.39518 67.7034 1.41004V5.57109H68.8329C68.8477 5.35561 68.8923 5.1104 68.9369 4.84291H69.7765V6.50733H65.7938L65.8012 6.52962Z" fill="#F0F8FC"/>
<path d="M8.75626 0.75C3.54008 2.81567 0.292969 8.26219 0.292969 16.6437V29.3647C0.292969 29.3647 1.36295 21.1837 8.75626 18.8283V0.75Z" fill="#F0F8FC"/>
<path d="M11.2754 20.0885C8.24374 20.6904 3.80033 23.1202 2.5 26.5456C9.00908 18.647 22.2873 26.2781 22.8817 11.4172C23.0675 6.71372 23.0898 0.917969 23.0898 0.917969C16.1572 1.31178 11.2828 3.15454 11.2828 3.15454V20.0885H11.2754Z" fill="#F0F8FC"/>
<path d="M10.4367 24.377C10.4367 24.377 3.37779 24.9491 2.77592 28.9838C2.30037 32.1343 10.4367 32.2161 10.4367 32.2161V24.377Z" fill="#F0F8FC"/>
</svg>
