<svg width="134" height="43" viewBox="0 0 134 43" fill="none" xmlns="http://www.w3.org/2000/svg">
<g clip-path="url(#clip0_5227_2476)">
<path d="M0.740234 0.798828V42.4325H61.3391V0.798828H0.740234ZM41.3394 14.0638L41.7963 12.6069L42.2574 14.0638H43.7629L42.5389 14.9491L42.9999 16.3813L41.7963 15.4939L40.5969 16.3813L41.0538 14.9491L39.8339 14.0638H41.3414H41.3394ZM16.6274 20.3641H18.1349L18.596 18.9092L19.0509 20.3641H20.5584L19.3385 21.2473L19.7934 22.6836L18.596 21.7942L17.3924 22.6836L17.8514 21.2473L16.6274 20.3641ZM21.4662 28.9818L20.2646 28.0944L19.0611 28.9818L19.518 27.5538L18.2961 26.6685H19.8016L20.2646 25.2116L20.7236 26.6685H22.225L21.0072 27.5538L21.4662 28.9818ZM21.0072 14.9677L21.4662 16.404L20.2646 15.5146L19.0611 16.404L19.518 14.9677L18.2961 14.0803H19.8016L20.2646 12.6296L20.7236 14.0803H22.225L21.0092 14.9677H21.0072ZM24.3507 9.47019L24.8097 8.01534L25.2707 9.47019H26.7721L25.5563 10.3576L26.0112 11.7918L24.8117 10.9024L23.6081 11.7918L24.0671 10.3576L22.8431 9.47019H24.3507ZM26.0173 33.5981L24.8199 32.7128L23.6204 33.5981L24.0773 32.1577L22.8533 31.2745H24.3568L24.8178 29.8258L25.2809 31.2745H26.7843L25.5644 32.1577L26.0173 33.5981ZM32.229 35.2697L31.0295 34.3864L29.83 35.2697L30.2849 33.8293L29.065 32.944H30.5705L31.0295 31.4953L31.4905 32.944H32.996L31.772 33.8293L32.231 35.2697H32.229ZM31.77 8.66538L32.2269 10.1017L31.0274 9.2143L29.8259 10.1017L30.2849 8.66538L29.065 7.78008H30.5664L31.0295 6.32523L31.4885 7.78008H32.996L31.772 8.66538H31.77ZM38.4386 33.5981L37.2391 32.7128L36.0376 33.5981L36.4945 32.1577L35.2787 31.2745H36.7801L37.2411 29.8258L37.6981 31.2745H39.2056L37.9837 32.1577L38.4406 33.5981H38.4386ZM38.002 10.3576L38.459 11.7918L37.2554 10.9024L36.0539 11.7918L36.5108 10.3576L35.2909 9.47019L36.7964 9.47432L37.2554 8.0174L37.7144 9.47226H39.2219L38 10.3596L38.002 10.3576ZM42.9999 28.9818L41.7963 28.0944L40.5969 28.9818L41.0538 27.5538L39.8339 26.6685H41.3414L41.7984 25.2116L42.2594 26.6685H43.7649L42.5409 27.5538L43.002 28.9818H42.9999ZM44.6543 22.665L43.4487 21.7777L42.2451 22.665L42.7041 21.2349L41.4842 20.3496H42.9877L43.4467 18.8948L43.9077 20.3496H45.4132L44.1913 21.2349L44.6523 22.665H44.6543Z" fill="white"/>
<path d="M67.9993 4.94171C67.9993 5.1584 67.987 5.36063 67.9625 5.54429C67.9381 5.72796 67.8769 5.91781 67.7749 6.11386C67.6729 6.3099 67.5076 6.47086 67.2792 6.60087C67.0507 6.73088 66.7447 6.79485 66.3632 6.79485C65.9817 6.79485 65.69 6.73707 65.4616 6.62151C65.2331 6.50595 65.0658 6.35736 64.9597 6.1737C64.8536 5.9921 64.7843 5.80018 64.7557 5.60208C64.7272 5.40397 64.7129 5.18316 64.7129 4.93965V2.49425H65.2657V4.9314C65.2657 5.18522 65.2841 5.40397 65.3208 5.58763C65.3575 5.77129 65.4514 5.93432 65.6064 6.07671C65.7594 6.2191 65.9981 6.28926 66.3183 6.28926C66.6386 6.28926 66.8875 6.23148 67.0507 6.11798C67.2139 6.00448 67.32 5.85384 67.371 5.66398C67.4199 5.47413 67.4444 5.23062 67.4444 4.92933V2.49219H68.0013V4.93759L67.9993 4.94171Z" fill="white"/>
<path d="M72.2161 6.72447H71.649L69.4642 3.40409H69.452V6.72447H68.9277V2.49609H69.4928L71.6776 5.81647H71.6898V2.49609H72.2182V6.72447H72.2161Z" fill="white"/>
<path d="M73.7757 6.72447H73.2188V2.49609H73.7757V6.72447Z" fill="white"/>
<path d="M78.2053 6.7236H77.581L77.0914 5.43796H75.3473L74.8862 6.7236H74.3008L75.9062 2.49522H76.5019L78.2073 6.7236H78.2053ZM77.2016 1.4923C77.2016 1.70692 77.1465 1.86994 77.0364 1.98138C76.9262 2.09281 76.7956 2.14647 76.6386 2.14647C76.5508 2.14647 76.4774 2.13615 76.4183 2.11551C76.3591 2.09488 76.2897 2.05773 76.2081 2.00408C76.0735 1.91741 75.9654 1.87407 75.8858 1.87407C75.7287 1.87407 75.6472 1.96487 75.641 2.1444H75.2902C75.2902 1.93185 75.3473 1.76882 75.4615 1.65739C75.5758 1.54595 75.7124 1.49023 75.8695 1.49023C75.9939 1.49023 76.1265 1.53563 76.2693 1.62643C76.4121 1.71723 76.5305 1.76263 76.6222 1.76263C76.7528 1.76263 76.8303 1.67183 76.8507 1.4923H77.2016ZM76.9221 4.99428C76.5794 4.07802 76.3877 3.56005 76.3428 3.43624C76.2999 3.31242 76.251 3.14526 76.1979 2.9389H76.1837C76.1306 3.22368 76.0592 3.48783 75.9695 3.72927L75.5023 4.99634H76.9221V4.99428Z" fill="white"/>
<path d="M80.4779 2.42188C81.0634 2.42188 81.5428 2.62205 81.9141 3.02445C82.2874 3.42686 82.473 3.95515 82.473 4.61345C82.473 5.27175 82.2853 5.79591 81.912 6.19625C81.5367 6.59453 81.0593 6.7947 80.4779 6.7947C79.8965 6.7947 79.3906 6.58834 79.0234 6.17562C78.6562 5.76289 78.4727 5.2573 78.4727 4.66091C78.4727 3.96753 78.6583 3.42067 79.0296 3.02033C79.4008 2.62205 79.8843 2.42188 80.4759 2.42188H80.4779ZM80.4718 6.31594C80.8961 6.31594 81.2388 6.1653 81.502 5.86607C81.7651 5.56685 81.8977 5.14793 81.8998 4.61345C81.8998 4.06246 81.7651 3.64148 81.4959 3.34432C81.2266 3.04922 80.89 2.90064 80.482 2.90064C80.074 2.90064 79.7191 3.04509 79.4498 3.33606C79.1805 3.62703 79.0459 4.07071 79.0459 4.67123C79.0459 5.16237 79.1785 5.55859 79.4416 5.86194C79.7048 6.1653 80.0495 6.31594 80.4718 6.31594Z" fill="white"/>
<path d="M87.9454 6.72447H84.8242V2.49609H87.8495V2.99756H85.3771V4.28939H87.6883V4.79085H85.3771V6.22094H87.9454V6.7224V6.72447Z" fill="white"/>
<path d="M92.0071 4.94171C92.0071 5.1584 91.9948 5.36063 91.9703 5.54429C91.9459 5.72796 91.8847 5.91781 91.7827 6.11386C91.6807 6.3099 91.5154 6.47086 91.287 6.60087C91.0585 6.73088 90.7525 6.79485 90.371 6.79485C89.9896 6.79485 89.6978 6.73707 89.4694 6.62151C89.2409 6.50595 89.0736 6.35736 88.9675 6.1737C88.8615 5.9921 88.7921 5.80018 88.7635 5.60208C88.735 5.40397 88.7207 5.18316 88.7207 4.93965V2.49425H89.2735V4.9314C89.2735 5.18522 89.2919 5.40397 89.3286 5.58763C89.3653 5.77129 89.4592 5.93432 89.6142 6.07671C89.7672 6.2191 90.0059 6.28926 90.3261 6.28926C90.6464 6.28926 90.8953 6.23148 91.0585 6.11798C91.2217 6.00448 91.3278 5.85384 91.3788 5.66398C91.4277 5.47413 91.4522 5.23062 91.4522 4.92933V2.49219H92.0091V4.93759L92.0071 4.94171Z" fill="white"/>
<path d="M96.6256 6.72447H95.9299C95.5138 6.05998 95.2547 5.65138 95.1548 5.49867C95.0548 5.34596 94.9487 5.21596 94.8365 5.10865C94.7264 4.99928 94.6203 4.93118 94.5224 4.90228C94.4245 4.87339 94.2959 4.85895 94.1327 4.85895H93.4942V6.72447H92.9414V2.49609H94.7916C95.0446 2.49609 95.2568 2.5126 95.4281 2.54562C95.5995 2.57864 95.7484 2.64674 95.8789 2.75198C96.0075 2.85723 96.1074 2.9893 96.1768 3.1482C96.2461 3.3071 96.2808 3.47632 96.2808 3.65379C96.2808 3.97365 96.1809 4.22954 95.9809 4.42352C95.781 4.6175 95.4913 4.74132 95.1078 4.79291V4.80529C95.3873 4.93118 95.6505 5.18707 95.8953 5.57503L96.6256 6.72653V6.72447ZM93.4942 4.35749H94.6794C94.9181 4.35749 95.1099 4.33685 95.2486 4.29558C95.3873 4.25431 95.4995 4.17382 95.5831 4.05413C95.6668 3.93444 95.7096 3.80237 95.7096 3.65379C95.7096 3.46187 95.6403 3.29885 95.5015 3.16265C95.3628 3.02851 95.1344 2.96041 94.8141 2.96041H93.4942V4.35542V4.35749Z" fill="white"/>
<path d="M98.9662 2.42188C99.5517 2.42188 100.031 2.62205 100.402 3.02445C100.776 3.42686 100.961 3.95515 100.961 4.61345C100.961 5.27175 100.774 5.79591 100.4 6.19625C100.025 6.59453 99.5476 6.7947 98.9662 6.7947C98.3848 6.7947 97.8789 6.58834 97.5117 6.17562C97.1445 5.76289 96.9609 5.2573 96.9609 4.66091C96.9609 3.96753 97.1466 3.42067 97.5178 3.02033C97.8891 2.62205 98.3705 2.42188 98.9642 2.42188H98.9662ZM98.9601 6.31594C99.3844 6.31594 99.7271 6.1653 99.9903 5.86607C100.253 5.56685 100.386 5.14793 100.388 4.61345C100.388 4.06246 100.253 3.64148 99.9842 3.34432C99.7149 3.04922 99.3762 2.90064 98.9703 2.90064C98.5643 2.90064 98.2074 3.04509 97.9381 3.33606C97.6688 3.62703 97.5342 4.07071 97.5342 4.67123C97.5342 5.16237 97.6668 5.55859 97.9299 5.86194C98.1931 6.1653 98.5378 6.31594 98.9581 6.31594H98.9601Z" fill="white"/>
<path d="M101.682 2.49609H103.259C103.507 2.49609 103.722 2.50848 103.901 2.53324C104.081 2.558 104.248 2.62404 104.401 2.72722C104.554 2.83247 104.672 2.97486 104.75 3.15439C104.827 3.33393 104.868 3.52172 104.868 3.71776C104.868 4.10779 104.744 4.42146 104.497 4.65671C104.248 4.89197 103.85 5.00959 103.303 5.00959H102.234V6.7224H101.682V2.49609ZM102.234 4.5102H103.31C103.966 4.5102 104.297 4.25224 104.297 3.73633C104.297 3.56712 104.254 3.41854 104.168 3.28853C104.083 3.15852 103.979 3.07804 103.854 3.04708C103.73 3.01613 103.544 2.99962 103.299 2.99962H102.237V4.5102H102.234Z" fill="white"/>
<path d="M108.711 6.72447H105.59V2.49609H108.615V2.99756H106.143V4.28939H108.454V4.79085H106.143V6.22094H108.711V6.7224V6.72447Z" fill="white"/>
<path d="M110.116 6.72447H109.559V2.49609H110.116V6.72447Z" fill="white"/>
<path d="M114.543 6.72447H113.919L113.429 5.43883H111.685L111.224 6.72447H110.639L112.244 2.49609H112.84L114.545 6.72447H114.543ZM113.26 4.99515C112.917 4.0789 112.726 3.56093 112.681 3.43711C112.638 3.31329 112.589 3.14614 112.536 2.93977H112.522C112.469 3.22455 112.397 3.4887 112.307 3.73014L111.84 4.99721H113.26V4.99515Z" fill="white"/>
<path d="M67.538 24.2632H65.2716V25.5736H67.2361V26.075H65.2716V27.9901H64.7188V23.7617H67.538V24.2632Z" fill="white"/>
<path d="M70.6592 27.9863H70.2002V27.5364H70.186C69.9534 27.8851 69.6372 28.0585 69.2374 28.0585C69.0273 28.0585 68.8314 28.009 68.6519 27.9099C68.4724 27.8108 68.352 27.6746 68.2929 27.5013C68.2337 27.328 68.2031 27.101 68.2031 26.8244V24.9259H68.7172V26.6222C68.7172 26.8925 68.7294 27.0865 68.756 27.2041C68.7825 27.3218 68.8498 27.4188 68.9579 27.493C69.066 27.5694 69.1945 27.6065 69.3455 27.6065C69.5393 27.6065 69.7209 27.5384 69.8922 27.4022C70.0636 27.266 70.1492 26.9854 70.1492 26.5582V24.9238H70.6633V27.9842L70.6592 27.9863Z" fill="white"/>
<path d="M73.9273 27.9877H73.4112V26.1284C73.4112 25.8147 73.3541 25.6001 73.2439 25.4825C73.1338 25.3649 72.9788 25.3071 72.7809 25.3071C72.6279 25.3071 72.4851 25.3442 72.3484 25.4185C72.2117 25.4928 72.1159 25.6001 72.0587 25.7363C72.0016 25.8725 71.9731 26.0665 71.9731 26.3162V27.9898H71.459V24.9294H71.92V25.3628H71.9323C72.0404 25.1956 72.173 25.0698 72.3321 24.9872C72.4912 24.9047 72.6748 24.8613 72.8849 24.8613C73.044 24.8613 73.2031 24.8902 73.3582 24.948C73.5132 25.0058 73.6356 25.0925 73.7233 25.208C73.8111 25.3236 73.8682 25.4474 73.8906 25.5774C73.9131 25.7074 73.9253 25.8849 73.9253 26.1078V27.9919L73.9273 27.9877Z" fill="white"/>
<path d="M77.1469 27.988H76.6675V27.598H76.6553C76.4717 27.9055 76.1922 28.0603 75.8209 28.0603C75.4497 28.0603 75.1416 27.9117 74.8928 27.6145C74.6439 27.3173 74.5215 26.9335 74.5215 26.4589C74.5215 25.9842 74.6378 25.5736 74.8724 25.2888C75.107 25.002 75.415 24.8596 75.7985 24.8596C76.1596 24.8596 76.435 24.9978 76.6226 25.2785H76.6349V23.7617H77.1489V27.9901L77.1469 27.988ZM75.876 27.6331C76.1004 27.6331 76.2901 27.5402 76.4452 27.3524C76.6002 27.1667 76.6798 26.884 76.6798 26.5043C76.6798 26.1246 76.6084 25.8336 76.4656 25.6128C76.3228 25.392 76.1188 25.2805 75.8536 25.2805C75.5884 25.2805 75.3864 25.3879 75.2497 25.6045C75.1131 25.8212 75.0458 26.1039 75.0458 26.4568C75.0458 26.7106 75.0825 26.9253 75.1559 27.1007C75.2294 27.2761 75.3313 27.4082 75.4619 27.4969C75.5925 27.5856 75.7312 27.629 75.876 27.629V27.6331Z" fill="white"/>
<path d="M79.1795 24.8595C79.5875 24.8595 79.9261 24.9936 80.1954 25.264C80.4647 25.5322 80.5993 25.9161 80.5993 26.4113C80.5993 27.0139 80.4545 27.439 80.1627 27.6867C79.871 27.9364 79.5446 28.0602 79.1795 28.0602C78.8143 28.0602 78.4655 27.9322 78.184 27.6763C77.9025 27.4204 77.7617 27.0139 77.7617 26.4588C77.7617 25.9037 77.8984 25.5198 78.1697 25.2536C78.441 24.9895 78.7776 24.8574 79.1795 24.8574V24.8595ZM79.1795 27.633C79.4712 27.633 79.6936 27.5236 79.8466 27.3049C79.9995 27.0861 80.075 26.7972 80.075 26.4402C80.075 26.0585 79.9894 25.7695 79.816 25.5756C79.6446 25.3816 79.4324 25.2846 79.1795 25.2846C78.9265 25.2846 78.7042 25.3836 78.5389 25.5797C78.3717 25.7778 78.288 26.0708 78.288 26.4609C78.288 26.8509 78.3737 27.1419 78.543 27.3379C78.7123 27.5339 78.9265 27.633 79.1815 27.633H79.1795Z" fill="white"/>
<path d="M86.0118 27.9862H82.8906V23.7578H85.9159V24.2593H83.4435V25.5511H85.7547V26.0526H83.4435V27.4827H86.0118V27.9841V27.9862Z" fill="white"/>
<path d="M89.1631 27.9863H88.7041V27.5364H88.6899C88.4573 27.8851 88.1411 28.0585 87.7413 28.0585C87.5312 28.0585 87.3353 28.009 87.1558 27.9099C86.9763 27.8108 86.8559 27.6746 86.7968 27.5013C86.7376 27.328 86.707 27.101 86.707 26.8244V24.9259H87.2211V26.6222C87.2211 26.8925 87.2333 27.0865 87.2599 27.2041C87.2864 27.3218 87.3537 27.4188 87.4618 27.493C87.5699 27.5694 87.6985 27.6065 87.8494 27.6065C88.0432 27.6065 88.2248 27.5384 88.3961 27.4022C88.5675 27.266 88.6531 26.9854 88.6531 26.5582V24.9238H89.1672V27.9842L89.1631 27.9863Z" fill="white"/>
<path d="M91.5917 25.0246L91.4143 25.5033C91.2878 25.429 91.1633 25.3898 91.0409 25.3898C90.8492 25.3898 90.7043 25.4765 90.6044 25.6499C90.5065 25.8232 90.4555 26.0667 90.4555 26.3804V27.9859H89.9414V24.9255H90.4086V25.3878H90.4208C90.584 25.0349 90.7982 24.8574 91.0613 24.8574C91.2368 24.8574 91.4122 24.9131 91.5876 25.0225L91.5917 25.0246Z" fill="white"/>
<path d="M93.1326 24.8595C93.5406 24.8595 93.8792 24.9936 94.1485 25.264C94.4178 25.5322 94.5524 25.9161 94.5524 26.4113C94.5524 27.0139 94.4076 27.439 94.1159 27.6867C93.8242 27.9364 93.4978 28.0602 93.1326 28.0602C92.7675 28.0602 92.4186 27.9322 92.1371 27.6763C91.8556 27.4204 91.7148 27.0139 91.7148 26.4588C91.7148 25.9037 91.8515 25.5198 92.1228 25.2536C92.3941 24.9895 92.7307 24.8574 93.1326 24.8574V24.8595ZM93.1326 27.633C93.4243 27.633 93.6467 27.5236 93.7997 27.3049C93.9527 27.0861 94.0282 26.7972 94.0282 26.4402C94.0282 26.0585 93.9425 25.7695 93.7691 25.5756C93.5977 25.3816 93.3856 25.2846 93.1326 25.2846C92.8797 25.2846 92.6573 25.3836 92.4921 25.5797C92.3248 25.7778 92.2411 26.0708 92.2411 26.4609C92.2411 26.8509 92.3248 27.1419 92.4961 27.3379C92.6675 27.5339 92.8797 27.633 93.1346 27.633H93.1326Z" fill="white"/>
<path d="M95.6357 25.3237C95.8275 25.0141 96.1151 24.8594 96.4986 24.8594C96.8821 24.8594 97.2085 25.0059 97.439 25.2969C97.6696 25.5878 97.7838 25.9675 97.7838 26.4339C97.7838 26.9313 97.6573 27.3275 97.4023 27.6205C97.1473 27.9135 96.8352 28.0601 96.4639 28.0601C96.1396 28.0601 95.8785 27.9301 95.6826 27.668H95.6684V29.1641H95.1543V24.9275H95.6214V25.3237H95.6337H95.6357ZM96.4313 27.6329C96.67 27.6329 96.8699 27.5318 97.027 27.3316C97.184 27.1314 97.2616 26.8322 97.2616 26.4339C97.2616 26.0583 97.1861 25.7715 97.0351 25.5693C96.8842 25.367 96.6904 25.2659 96.4537 25.2659C96.2171 25.2659 96.0111 25.3773 95.854 25.6023C95.6969 25.8272 95.6174 26.1182 95.6174 26.4752C95.6174 26.8549 95.6928 27.1417 95.8418 27.3378C95.9927 27.5338 96.1886 27.6329 96.4293 27.6329H96.4313Z" fill="white"/>
<path d="M101.029 26.5889H98.7626C98.783 26.9274 98.8788 27.1853 99.0502 27.3648C99.2195 27.5444 99.4317 27.6331 99.6866 27.6331C99.8825 27.6331 100.048 27.5815 100.18 27.4763C100.313 27.371 100.415 27.2142 100.486 27.0016L101.013 27.0677C100.927 27.3875 100.77 27.631 100.541 27.8023C100.313 27.9736 100.027 28.0582 99.6866 28.0582C99.2317 28.0582 98.8788 27.9179 98.6218 27.6352C98.3668 27.3525 98.2383 26.9686 98.2383 26.4795C98.2383 25.9905 98.3627 25.6066 98.6116 25.3053C98.8605 25.0061 99.2093 24.8555 99.6581 24.8555C99.8784 24.8555 100.091 24.905 100.297 25.002C100.501 25.099 100.674 25.2661 100.817 25.5014C100.96 25.7366 101.031 26.0978 101.031 26.5848L101.029 26.5889ZM100.503 26.1617C100.482 25.8501 100.386 25.6252 100.217 25.489C100.048 25.3507 99.86 25.2826 99.6581 25.2826C99.4174 25.2826 99.2175 25.3652 99.0624 25.5282C98.9074 25.6912 98.8156 25.9038 98.7911 26.1617H100.503Z" fill="white"/>
<path d="M104.099 27.9863H103.64V27.5364H103.625C103.393 27.8851 103.077 28.0585 102.677 28.0585C102.467 28.0585 102.271 28.009 102.091 27.9099C101.912 27.8108 101.791 27.6746 101.732 27.5013C101.673 27.328 101.643 27.101 101.643 26.8244V24.9259H102.157V26.6222C102.157 26.8925 102.171 27.0865 102.195 27.2041C102.22 27.3218 102.287 27.4188 102.395 27.493C102.503 27.5694 102.632 27.6065 102.783 27.6065C102.977 27.6065 103.158 27.5384 103.33 27.4022C103.501 27.266 103.587 26.9854 103.587 26.5582V24.9238H104.101V27.9842L104.099 27.9863Z" fill="white"/>
<path d="M108.962 27.988H108.482V27.598H108.47C108.286 27.9055 108.007 28.0603 107.634 28.0603C107.26 28.0603 106.954 27.9117 106.705 27.6145C106.456 27.3173 106.332 26.9335 106.332 26.4589C106.332 25.9842 106.448 25.5736 106.683 25.2888C106.918 25.002 107.226 24.8596 107.609 24.8596C107.97 24.8596 108.246 24.9978 108.433 25.2785H108.445V23.7617H108.959V27.9901L108.962 27.988ZM107.691 27.6331C107.915 27.6331 108.105 27.5402 108.262 27.3524C108.417 27.1667 108.496 26.884 108.496 26.5043C108.496 26.1246 108.425 25.8336 108.282 25.6128C108.139 25.392 107.935 25.2805 107.67 25.2805C107.405 25.2805 107.203 25.3879 107.068 25.6045C106.932 25.8212 106.864 26.1039 106.864 26.4568C106.864 26.7106 106.901 26.9253 106.975 27.1007C107.048 27.2761 107.15 27.4082 107.281 27.4969C107.411 27.5856 107.55 27.629 107.695 27.629L107.691 27.6331Z" fill="white"/>
<path d="M112.39 26.5889H110.124C110.144 26.9274 110.24 27.1853 110.411 27.3648C110.581 27.5444 110.793 27.6331 111.048 27.6331C111.244 27.6331 111.409 27.5815 111.542 27.4763C111.674 27.371 111.776 27.2142 111.848 27.0016L112.376 27.0677C112.29 27.3875 112.133 27.631 111.905 27.8023C111.676 27.9736 111.391 28.0582 111.05 28.0582C110.595 28.0582 110.242 27.9179 109.985 27.6352C109.73 27.3525 109.602 26.9686 109.602 26.4795C109.602 25.9905 109.726 25.6066 109.975 25.3053C110.224 25.0061 110.573 24.8555 111.021 24.8555C111.242 24.8555 111.454 24.905 111.66 25.002C111.864 25.099 112.037 25.2661 112.18 25.5014C112.323 25.7366 112.394 26.0978 112.394 26.5848L112.39 26.5889ZM111.862 26.1617C111.841 25.8501 111.746 25.6252 111.576 25.489C111.407 25.3528 111.219 25.2826 111.019 25.2826C110.779 25.2826 110.579 25.3652 110.424 25.5282C110.269 25.6912 110.177 25.9038 110.152 26.1617H111.864H111.862Z" fill="white"/>
<path d="M64.7188 30.8477H66.161C66.414 30.8477 66.6322 30.86 66.8138 30.8869C66.9953 30.9137 67.1708 30.9756 67.336 31.0767C67.5033 31.1778 67.6481 31.3161 67.7726 31.4936C67.897 31.671 67.9949 31.8733 68.0663 32.1044C68.1377 32.3335 68.1744 32.6121 68.1744 32.9402C68.1744 33.5634 68.0276 34.0752 67.7358 34.4755C67.4441 34.8759 66.9403 35.076 66.2242 35.076H64.7188V30.8477ZM65.2716 34.5746H66.1671C66.3487 34.5746 66.5119 34.5622 66.6547 34.5395C66.7975 34.5168 66.9443 34.4549 67.0912 34.3517C67.2381 34.2506 67.3605 34.0834 67.4584 33.8502C67.5563 33.617 67.6032 33.3096 67.6032 32.9278C67.6032 32.7173 67.5849 32.5192 67.5482 32.3355C67.5115 32.1519 67.4421 31.9847 67.3421 31.8341C67.2422 31.6834 67.1279 31.572 66.9994 31.5018C66.8709 31.4317 66.7444 31.3883 66.622 31.3739C66.4996 31.3574 66.3426 31.3512 66.1508 31.3512H65.2736V34.5746H65.2716Z" fill="white"/>
<path d="M71.4839 33.6768H69.2175C69.2379 34.0152 69.3338 34.2732 69.5031 34.4527C69.6724 34.6323 69.8866 34.721 70.1416 34.721C70.3375 34.721 70.5027 34.6694 70.6353 34.5642C70.7679 34.4589 70.8699 34.3021 70.9413 34.0895L71.4697 34.1556C71.384 34.4754 71.2269 34.7189 70.9984 34.8902C70.7699 35.0615 70.4844 35.1461 70.1437 35.1461C69.6888 35.1461 69.3338 35.0058 69.0788 34.7231C68.8238 34.4424 68.6953 34.0565 68.6953 33.5674C68.6953 33.0784 68.8198 32.6925 69.0666 32.3932C69.3155 32.094 69.6643 31.9434 70.1151 31.9434C70.3354 31.9434 70.5476 31.9929 70.7516 32.0899C70.9556 32.1889 71.129 32.354 71.2718 32.5893C71.4146 32.8245 71.486 33.1857 71.486 33.6727L71.4839 33.6768ZM70.9556 33.2496C70.9352 32.938 70.8393 32.7131 70.668 32.5769C70.4986 32.4386 70.313 32.3705 70.111 32.3705C69.8703 32.3705 69.6704 32.4531 69.5154 32.6161C69.3603 32.7791 69.2685 32.9917 69.2441 33.2496H70.9556Z" fill="white"/>
<path d="M73.7937 32.8718C73.7713 32.7046 73.704 32.5787 73.5918 32.4962C73.4816 32.4116 73.3266 32.3703 73.1287 32.3703C72.9308 32.3703 72.7738 32.4033 72.6534 32.4714C72.533 32.5395 72.4739 32.6365 72.4739 32.7665C72.4739 32.8883 72.5208 32.975 72.6167 33.0265C72.7125 33.0781 72.9023 33.1421 73.1858 33.2164C73.5061 33.2989 73.7448 33.3712 73.9018 33.4351C74.061 33.4991 74.1834 33.5879 74.2731 33.7014C74.3608 33.8148 74.4057 33.9758 74.4057 34.1781C74.4057 34.4504 74.2956 34.6816 74.0752 34.8673C73.8549 35.053 73.5612 35.148 73.1919 35.148C72.8227 35.148 72.5086 35.0654 72.2923 34.9003C72.0761 34.7352 71.9455 34.4897 71.8945 34.1615L72.4045 34.0831C72.431 34.2957 72.5086 34.4566 72.6391 34.5619C72.7697 34.6671 72.9512 34.7208 73.1858 34.7208C73.4204 34.7208 73.5816 34.6733 73.7019 34.5784C73.8223 34.4835 73.8814 34.3679 73.8814 34.2317C73.8814 34.1388 73.8549 34.0645 73.7978 34.0088C73.7427 33.9531 73.6734 33.9118 73.5897 33.883C73.5061 33.8561 73.3225 33.8045 73.0328 33.7344C72.6024 33.6312 72.3188 33.5053 72.1822 33.3567C72.0434 33.2081 71.9761 33.0307 71.9761 32.8264C71.9761 32.5705 72.0761 32.36 72.278 32.1949C72.48 32.0298 72.7513 31.9473 73.0899 31.9473C73.451 31.9473 73.7305 32.0195 73.9324 32.1619C74.1324 32.3043 74.2527 32.5189 74.2935 32.8037L73.7917 32.8718H73.7937Z" fill="white"/>
<path d="M77.6519 33.6768H75.3855C75.4059 34.0152 75.5018 34.2732 75.6711 34.4527C75.8404 34.6323 76.0546 34.721 76.3096 34.721C76.5054 34.721 76.6707 34.6694 76.8033 34.5642C76.9359 34.4589 77.0379 34.3021 77.1093 34.0895L77.6356 34.1556C77.5499 34.4754 77.3928 34.7189 77.1664 34.8902C76.9379 35.0615 76.6523 35.1461 76.3116 35.1461C75.8567 35.1461 75.5018 35.0058 75.2468 34.7231C74.9918 34.4424 74.8633 34.0565 74.8633 33.5674C74.8633 33.0784 74.9877 32.6925 75.2346 32.3932C75.4834 32.094 75.8323 31.9434 76.2831 31.9434C76.5034 31.9434 76.7156 31.9929 76.9196 32.0899C77.1235 32.1889 77.2969 32.354 77.4397 32.5893C77.5825 32.8245 77.6539 33.1857 77.6539 33.6727L77.6519 33.6768ZM77.1256 33.2496C77.1052 32.938 77.0093 32.7131 76.838 32.5769C76.6686 32.4386 76.483 32.3705 76.281 32.3705C76.0403 32.3705 75.8404 32.4531 75.6854 32.6161C75.5303 32.7791 75.4385 32.9917 75.4141 33.2496H77.1235H77.1256Z" fill="white"/>
<path d="M80.7418 35.0756H80.2257V33.2163C80.2257 32.9026 80.1686 32.688 80.0584 32.5704C79.9482 32.4527 79.7932 32.395 79.5953 32.395C79.4423 32.395 79.2995 32.4321 79.1629 32.5064C79.0262 32.5807 78.9303 32.688 78.8732 32.8242C78.8161 32.9604 78.7875 33.1544 78.7875 33.4041V35.0777H78.2734V32.0173H78.7345V32.4507H78.7467C78.8548 32.2835 78.9874 32.1576 79.1465 32.0751C79.3057 31.9905 79.4892 31.9492 79.6994 31.9492C79.8585 31.9492 80.0176 31.9781 80.1726 32.0359C80.3277 32.0937 80.4501 32.1803 80.5378 32.2959C80.6255 32.4115 80.6826 32.5353 80.7051 32.6653C80.7275 32.7953 80.7397 32.9728 80.7397 33.1956V35.0797L80.7418 35.0756Z" fill="white"/>
<path d="M83.9773 32.0156L82.8349 35.076H82.3555L81.207 32.0156H81.7497L82.3739 33.7862C82.4922 34.1205 82.5616 34.3475 82.584 34.4672H82.5962C82.6268 34.3434 82.6799 34.1783 82.7533 33.9719L83.4551 32.0156H83.9793H83.9773Z" fill="white"/>
<path d="M85.6678 31.9453C86.0758 31.9453 86.4144 32.0794 86.6837 32.3498C86.9529 32.6181 87.0876 33.0019 87.0876 33.4972C87.0876 34.0997 86.9427 34.5248 86.651 34.7725C86.3593 35.0222 86.0329 35.146 85.6678 35.146C85.3026 35.146 84.9538 35.0181 84.6723 34.7622C84.3908 34.5063 84.25 34.0997 84.25 33.5446C84.25 32.9895 84.3867 32.6057 84.658 32.3415C84.9293 32.0774 85.2659 31.9453 85.6678 31.9453ZM85.6678 34.7188C85.9595 34.7188 86.1818 34.6095 86.3348 34.3907C86.4878 34.172 86.5633 33.8831 86.5633 33.5261C86.5633 33.1443 86.4776 32.8554 86.3042 32.6614C86.1329 32.4674 85.9207 32.3704 85.6678 32.3704C85.4148 32.3704 85.1925 32.4695 85.0272 32.6655C84.8599 32.8636 84.7763 33.1567 84.7763 33.5467C84.7763 33.9367 84.862 34.2277 85.0313 34.4258C85.2006 34.6239 85.4148 34.7209 85.6698 34.7209L85.6678 34.7188Z" fill="white"/>
<path d="M88.1977 35.076H87.6836V30.8477H88.1977V35.076Z" fill="white"/>
<path d="M91.4421 32.0156L90.2998 35.076H89.8204L88.6719 32.0156H89.2145L89.8387 33.7862C89.957 34.1205 90.0264 34.3475 90.0488 34.4672H90.0611C90.0917 34.3434 90.1447 34.1783 90.2182 33.9719L90.9199 32.0156H91.4442H91.4421Z" fill="white"/>
<path d="M92.4145 31.4358H91.9004V30.8477H92.4145V31.4358ZM92.4145 35.076H91.9004V32.0157H92.4145V35.076Z" fill="white"/>
<path d="M97.3002 35.0757H96.7862V33.1442C96.7862 33.0018 96.776 32.88 96.7576 32.7789C96.7392 32.6778 96.6903 32.5891 96.6107 32.5106C96.5312 32.4322 96.4088 32.393 96.2415 32.393C96.0395 32.393 95.8661 32.4632 95.7193 32.6056C95.5724 32.748 95.4989 32.9791 95.4989 33.2969V35.0737H94.9849V33.0843C94.9849 32.8181 94.94 32.6365 94.8462 32.5395C94.7544 32.4405 94.6238 32.393 94.4545 32.393C94.2342 32.393 94.0526 32.4694 93.9098 32.6241C93.7691 32.7789 93.6977 33.0658 93.6977 33.4867V35.0757H93.1836V32.0154H93.6446V32.4425H93.6569C93.8629 32.1124 94.1628 31.9473 94.5606 31.9473C94.7829 31.9473 94.9665 31.9927 95.1093 32.0814C95.2521 32.1701 95.3561 32.3043 95.4214 32.4838C95.6458 32.1268 95.9559 31.9473 96.3537 31.9473C96.6678 31.9473 96.9024 32.0319 97.0595 32.2032C97.2166 32.3744 97.2941 32.6303 97.2941 32.9729V35.0757H97.3002Z" fill="white"/>
<path d="M100.695 33.6768H98.4285C98.4489 34.0152 98.5448 34.2732 98.7161 34.4527C98.8875 34.6323 99.0976 34.721 99.3526 34.721C99.5484 34.721 99.7136 34.6694 99.8462 34.5642C99.9788 34.4589 100.081 34.3021 100.152 34.0895L100.681 34.1556C100.595 34.4754 100.438 34.7189 100.209 34.8902C99.9809 35.0615 99.6953 35.1461 99.3546 35.1461C98.8997 35.1461 98.5468 35.0058 98.2898 34.7231C98.0348 34.4424 97.9062 34.0565 97.9062 33.5674C97.9062 33.0784 98.0307 32.6925 98.2796 32.3932C98.5284 32.094 98.8773 31.9434 99.3261 31.9434C99.5464 31.9434 99.7585 31.9929 99.9646 32.0899C100.169 32.1889 100.342 32.354 100.485 32.5893C100.628 32.8245 100.699 33.1857 100.699 33.6727L100.695 33.6768ZM100.169 33.2496C100.148 32.938 100.052 32.7131 99.883 32.5769C99.7136 32.4386 99.526 32.3705 99.3261 32.3705C99.0853 32.3705 98.8854 32.4531 98.7304 32.6161C98.5754 32.7791 98.4836 32.9917 98.4591 33.2496H100.171H100.169Z" fill="white"/>
<path d="M103.781 35.0756H103.265V33.2163C103.265 32.9026 103.21 32.688 103.099 32.5704C102.987 32.4527 102.834 32.395 102.636 32.395C102.483 32.395 102.341 32.4321 102.204 32.5064C102.067 32.5807 101.971 32.688 101.914 32.8242C101.857 32.9604 101.829 33.1544 101.829 33.4041V35.0777H101.314V32.0173H101.775V32.4507H101.788C101.896 32.2835 102.03 32.1576 102.19 32.0751C102.349 31.9905 102.532 31.9492 102.74 31.9492C102.9 31.9492 103.059 31.9781 103.214 32.0359C103.369 32.0937 103.493 32.1803 103.581 32.2959C103.669 32.4115 103.724 32.5353 103.748 32.6653C103.771 32.7953 103.783 32.9728 103.783 33.1956V35.0797L103.781 35.0756Z" fill="white"/>
<path d="M105.736 35.0707C105.583 35.1017 105.457 35.1161 105.351 35.1161C105.126 35.1161 104.963 35.0769 104.861 34.9964C104.759 34.916 104.696 34.8148 104.674 34.6931C104.651 34.5693 104.639 34.398 104.639 34.1792V32.4169H104.266V32.0166H104.639V31.2551L105.153 30.9414V32.0166H105.667V32.4169H105.153V34.2081C105.153 34.3629 105.169 34.4702 105.2 34.5362C105.231 34.6002 105.31 34.6332 105.437 34.6332C105.51 34.6332 105.588 34.625 105.665 34.6105L105.736 35.0728V35.0707Z" fill="white"/>
<path d="M107.412 31.9453C107.82 31.9453 108.161 32.0794 108.428 32.3498C108.697 32.6181 108.832 33.0019 108.832 33.4972C108.832 34.0997 108.687 34.5248 108.395 34.7725C108.105 35.0222 107.777 35.146 107.412 35.146C107.047 35.146 106.698 35.0181 106.416 34.7622C106.135 34.5063 105.994 34.0997 105.994 33.5446C105.994 32.9895 106.131 32.6057 106.402 32.3415C106.673 32.0774 107.01 31.9453 107.412 31.9453ZM107.412 34.7188C107.704 34.7188 107.926 34.6095 108.079 34.3907C108.232 34.172 108.307 33.8831 108.307 33.5261C108.307 33.1443 108.222 32.8554 108.05 32.6614C107.879 32.4674 107.665 32.3704 107.412 32.3704C107.159 32.3704 106.937 32.4695 106.771 32.6655C106.604 32.8636 106.52 33.1567 106.52 33.5467C106.52 33.9367 106.606 34.2277 106.775 34.4258C106.945 34.6239 107.157 34.7209 107.412 34.7209V34.7188Z" fill="white"/>
<path d="M114.807 35.076H114.112C113.695 34.4115 113.436 34.0029 113.336 33.8502C113.236 33.6975 113.13 33.5675 113.018 33.4602C112.906 33.3508 112.802 33.2827 112.704 33.2538C112.606 33.225 112.476 33.2105 112.314 33.2105H111.676V35.076H111.123V30.8477H112.973C113.226 30.8477 113.438 30.8642 113.61 30.8972C113.781 30.9302 113.93 30.9983 114.061 31.1035C114.189 31.2088 114.289 31.3409 114.358 31.4998C114.428 31.6587 114.462 31.8279 114.462 32.0054C114.462 32.3252 114.362 32.5811 114.163 32.7751C113.963 32.9691 113.673 33.0929 113.289 33.1445V33.1569C113.569 33.2827 113.832 33.5386 114.077 33.9266L114.807 35.0781V35.076ZM111.678 32.709H112.863C113.102 32.709 113.294 32.6884 113.432 32.6471C113.571 32.6059 113.683 32.5254 113.767 32.4057C113.85 32.286 113.893 32.1519 113.893 32.0054C113.893 31.8134 113.824 31.6504 113.685 31.5142C113.547 31.3801 113.318 31.312 112.998 31.312H111.678V32.707V32.709Z" fill="white"/>
<path d="M117.896 33.6768H115.63C115.65 34.0152 115.746 34.2732 115.917 34.4527C116.087 34.6323 116.299 34.721 116.554 34.721C116.75 34.721 116.915 34.6694 117.048 34.5642C117.18 34.4589 117.282 34.3021 117.354 34.0895L117.88 34.1556C117.794 34.4754 117.637 34.7189 117.409 34.8902C117.18 35.0615 116.895 35.1461 116.554 35.1461C116.099 35.1461 115.746 35.0058 115.489 34.7231C115.234 34.4424 115.105 34.0565 115.105 33.5674C115.105 33.0784 115.23 32.6925 115.479 32.3932C115.728 32.094 116.076 31.9434 116.525 31.9434C116.746 31.9434 116.958 31.9929 117.164 32.0899C117.368 32.1889 117.541 32.354 117.684 32.5893C117.827 32.8245 117.898 33.1857 117.898 33.6727L117.896 33.6768ZM117.37 33.2496C117.349 32.938 117.254 32.7131 117.084 32.5769C116.915 32.4386 116.727 32.3705 116.525 32.3705C116.285 32.3705 116.085 32.4531 115.93 32.6161C115.775 32.7791 115.683 32.9917 115.658 33.2496H117.37Z" fill="white"/>
<path d="M120.99 34.6631C120.99 35.0985 120.948 35.4225 120.862 35.6371C120.776 35.8518 120.625 36.0189 120.405 36.1365C120.187 36.2562 119.926 36.3161 119.622 36.3161C119.279 36.3161 118.993 36.2397 118.767 36.085C118.538 35.9302 118.424 35.6784 118.424 35.3297L118.924 35.4081C118.942 35.569 119.01 35.6908 119.126 35.7713C119.242 35.8518 119.405 35.893 119.618 35.893C119.883 35.893 120.079 35.8373 120.203 35.7279C120.327 35.6186 120.403 35.4844 120.429 35.3276C120.456 35.1708 120.47 34.952 120.47 34.6755C120.248 34.9417 119.968 35.0758 119.63 35.0758C119.236 35.0758 118.922 34.9293 118.683 34.6342C118.445 34.3391 118.324 33.9697 118.324 33.5199C118.324 33.07 118.44 32.6944 118.673 32.3952C118.906 32.096 119.226 31.9453 119.636 31.9453C119.993 31.9453 120.285 32.0898 120.509 32.3807H120.521V32.0134H120.995V34.661L120.99 34.6631ZM119.677 34.6507C119.895 34.6507 120.089 34.562 120.258 34.3866C120.427 34.2112 120.511 33.9161 120.511 33.5034C120.511 33.1381 120.429 32.8574 120.268 32.6635C120.107 32.4674 119.907 32.3704 119.671 32.3704C119.434 32.3704 119.23 32.4695 119.077 32.6696C118.924 32.8698 118.846 33.1443 118.846 33.491C118.846 33.8934 118.928 34.1864 119.087 34.3721C119.248 34.5579 119.444 34.6507 119.675 34.6507H119.677Z" fill="white"/>
<path d="M122.272 31.4358H121.758V30.8477H122.272V31.4358ZM122.272 35.076H121.758V32.0157H122.272V35.076Z" fill="white"/>
<path d="M124.287 31.9453C124.695 31.9453 125.036 32.0794 125.303 32.3498C125.572 32.6181 125.707 33.0019 125.707 33.4972C125.707 34.0997 125.562 34.5248 125.27 34.7725C124.98 35.0222 124.652 35.146 124.287 35.146C123.922 35.146 123.573 35.0181 123.291 34.7622C123.01 34.5063 122.869 34.0997 122.869 33.5446C122.869 32.9895 123.006 32.6057 123.277 32.3415C123.548 32.0774 123.885 31.9453 124.287 31.9453ZM124.287 34.7188C124.579 34.7188 124.803 34.6095 124.954 34.3907C125.107 34.172 125.182 33.8831 125.182 33.5261C125.182 33.1443 125.097 32.8554 124.925 32.6614C124.754 32.4674 124.54 32.3704 124.287 32.3704C124.034 32.3704 123.814 32.4695 123.646 32.6655C123.479 32.8636 123.395 33.1567 123.395 33.5467C123.395 33.9367 123.481 34.2277 123.65 34.4258C123.82 34.6239 124.032 34.7209 124.287 34.7209V34.7188Z" fill="white"/>
<path d="M128.777 35.0756H128.261V33.2163C128.261 32.9026 128.206 32.688 128.094 32.5704C127.983 32.4527 127.828 32.395 127.63 32.395C127.477 32.395 127.335 32.4321 127.198 32.5064C127.061 32.5807 126.965 32.688 126.908 32.8242C126.851 32.9604 126.823 33.1544 126.823 33.4041V35.0777H126.309V32.0173H126.77V32.4507H126.782C126.89 32.2835 127.025 32.1576 127.184 32.0751C127.343 31.9905 127.526 31.9492 127.735 31.9492C127.894 31.9492 128.053 31.9781 128.208 32.0359C128.363 32.0937 128.487 32.1803 128.575 32.2959C128.663 32.4115 128.718 32.5353 128.742 32.6653C128.765 32.7953 128.777 32.9728 128.777 33.1956V35.0797V35.0756Z" fill="white"/>
<path d="M132.173 35.0757H131.635C131.586 34.9787 131.551 34.8529 131.529 34.6981C131.184 34.9973 130.813 35.148 130.415 35.148C130.095 35.148 129.844 35.0675 129.66 34.9065C129.477 34.7455 129.383 34.5309 129.383 34.2668C129.383 34.0026 129.473 33.8045 129.65 33.6394C129.828 33.4744 130.136 33.365 130.574 33.3113L131.054 33.2391C131.233 33.2102 131.38 33.1751 131.496 33.1318C131.496 32.977 131.492 32.8656 131.482 32.8016C131.472 32.7376 131.445 32.6695 131.398 32.6014C131.351 32.5333 131.276 32.4756 131.174 32.4343C131.072 32.3909 130.933 32.3703 130.76 32.3703C130.539 32.3703 130.366 32.4116 130.238 32.4941C130.109 32.5767 130.021 32.7314 129.974 32.9564L129.473 32.8903C129.528 32.5767 129.668 32.3414 129.897 32.1846C130.125 32.0277 130.44 31.9473 130.837 31.9473C131.2 31.9473 131.468 32.0009 131.637 32.1103C131.806 32.2197 131.912 32.3497 131.951 32.5044C131.99 32.6592 132.008 32.8573 132.008 33.0988V33.7963C132.008 34.2214 132.016 34.5062 132.033 34.6506C132.049 34.7951 132.096 34.9375 132.173 35.0757ZM131.494 33.7282V33.5404C131.227 33.6312 130.899 33.7014 130.511 33.755C130.123 33.8087 129.93 33.9738 129.93 34.2523C129.93 34.3927 129.983 34.5082 130.087 34.599C130.191 34.6898 130.342 34.7352 130.537 34.7352C130.79 34.7352 131.013 34.6589 131.207 34.5062C131.4 34.3535 131.496 34.0934 131.496 33.7261L131.494 33.7282Z" fill="white"/>
<path d="M133.315 35.076H132.801V30.8477H133.315V35.076Z" fill="white"/>
</g>
<defs>
<clipPath id="clip0_5227_2476">
<rect width="132.57" height="41.6337" fill="white" transform="translate(0.740234 0.798828)"/>
</clipPath>
</defs>
</svg>
