<svg width="194" height="48" viewBox="0 0 194 48" fill="none" xmlns="http://www.w3.org/2000/svg">
<path fill-rule="evenodd" clip-rule="evenodd" d="M190.845 4.17638C190.7 4.32035 190.525 4.39199 190.318 4.39199H189.264V2.92663H190.318C190.525 2.92663 190.7 2.9964 190.845 3.1357C190.988 3.27547 191.06 3.44791 191.06 3.65301C191.06 3.85858 190.988 4.03312 190.845 4.17638ZM191.461 4.4783C191.633 4.2403 191.719 3.96519 191.719 3.65299C191.719 3.45582 191.683 3.27335 191.611 3.10488C191.539 2.93688 191.439 2.78894 191.311 2.66154C191.183 2.53437 191.034 2.43357 190.862 2.3596C190.691 2.28587 190.509 2.249 190.318 2.249H188.605V6.25213H189.072H189.264V5.06934H190.066L190.808 6.25213H191.587L190.796 4.98324C191.068 4.88454 191.289 4.71654 191.461 4.4783ZM191.186 6.9663C190.822 7.12241 190.433 7.20034 190.018 7.20034C189.603 7.20034 189.214 7.12241 188.851 6.9663C188.487 6.81044 188.17 6.59903 187.899 6.33186C187.627 6.06539 187.414 5.75319 187.258 5.39595C187.103 5.03848 187.024 4.65487 187.024 4.2442C187.024 3.84216 187.103 3.46019 187.258 3.09851C187.414 2.73754 187.627 2.42324 187.899 2.15653C188.17 1.8896 188.487 1.67819 188.851 1.52209C189.214 1.36622 189.603 1.28805 190.018 1.28805C190.433 1.28805 190.822 1.36622 191.186 1.52209C191.549 1.67819 191.866 1.8896 192.138 2.15653C192.409 2.42324 192.623 2.73754 192.778 3.09851C192.934 3.46019 193.012 3.84216 193.012 4.2442C193.012 4.65487 192.934 5.03848 192.778 5.39595C192.623 5.75319 192.409 6.06539 192.138 6.33186C191.866 6.59903 191.549 6.81044 191.186 6.9663ZM191.443 0.875508C190.996 0.682772 190.521 0.585938 190.018 0.585938C189.515 0.585938 189.042 0.682772 188.6 0.875508C188.156 1.06848 187.769 1.32935 187.438 1.65765C187.106 1.98619 186.845 2.37423 186.654 2.82154C186.462 3.26908 186.366 3.74345 186.366 4.24419C186.366 4.75356 186.462 5.22957 186.654 5.67291C186.845 6.11649 187.106 6.50242 187.438 6.83073C187.769 7.15927 188.156 7.42037 188.6 7.61287C189.042 7.80608 189.515 7.90244 190.018 7.90244C190.521 7.90244 190.996 7.80608 191.443 7.61287C191.89 7.42037 192.279 7.15927 192.611 6.83073C192.942 6.50242 193.204 6.11649 193.395 5.67291C193.587 5.22957 193.682 4.75356 193.682 4.24419C193.682 3.74345 193.587 3.26908 193.395 2.82154C193.204 2.37423 192.942 1.98619 192.611 1.65765C192.279 1.32935 191.89 1.06848 191.443 0.875508ZM172.682 23.9804V28.4074H183.411C184.482 28.4074 185.486 28.2263 186.424 27.8642C187.362 27.5018 188.333 26.999 189.016 26.3549C189.699 25.711 190.235 24.9461 190.623 24.061C191.011 23.1753 191.206 22.2232 191.206 21.2033C191.206 19.8617 190.918 18.7417 190.342 17.8426C189.766 16.9437 188.875 16.2063 187.991 15.6291C187.107 15.0523 186.136 14.5894 185.078 14.2403C184.02 13.8922 183.022 13.5835 182.085 13.3147C180.986 12.9928 180.062 12.7048 179.312 12.4495C178.562 12.1947 177.959 11.9199 177.504 11.6242C177.048 11.3295 176.72 11.0143 176.519 10.6784C176.318 10.3433 176.218 9.93401 176.218 9.45112C176.218 8.96799 176.311 8.55247 176.499 8.20336C176.686 7.85497 176.934 7.56625 177.243 7.33816C177.55 7.11031 177.892 6.94237 178.267 6.83506C178.642 6.72823 179.031 6.67385 179.433 6.67385H183.875V2.24677H179.433C178.334 2.24677 177.323 2.42771 176.399 2.79005C175.475 3.15216 174.671 3.6555 173.988 4.29935C173.305 4.94344 172.768 5.70784 172.38 6.59349C171.992 7.47891 171.798 8.43169 171.798 9.45112C171.798 10.8466 172.092 12.0068 172.682 12.9324C173.271 13.858 174.014 14.6166 174.912 15.2063C175.809 15.797 176.794 16.2729 177.865 16.635C178.937 16.9974 179.955 17.313 180.919 17.5811C181.99 17.8765 182.888 18.1513 183.611 18.4061C184.335 18.6614 184.917 18.9229 185.359 19.1907C185.801 19.4594 186.123 19.7542 186.324 20.0764C186.525 20.3983 186.625 20.7743 186.625 21.2033C186.625 21.686 186.531 22.1025 186.344 22.4509C186.156 22.7997 185.908 23.0887 185.6 23.3163C185.292 23.5444 184.944 23.7123 184.556 23.8194C184.167 23.927 183.786 23.9804 183.411 23.9804H172.682ZM122.653 28.4074C129.059 28.4074 134.083 23.8533 134.083 18.2251V2.45152H129.446V18.2251C129.446 19.8543 128.73 21.4093 127.423 22.5572C126.075 23.7051 124.508 24.3348 122.653 24.3348C120.757 24.3348 119.19 23.7051 117.883 22.5572C116.535 21.4093 115.818 19.8543 115.818 18.2251V2.45152H111.182V18.2251C111.182 23.8533 116.247 28.4074 122.653 28.4074ZM64.6631 12.6335L61.123 19.7799L69.8052 23.0013L64.6631 12.6335ZM51.767 28.4069L64.663 2.48832L77.5597 28.4069H72.5022L59.2264 23.5196L56.8243 28.4069H51.767ZM19.9059 6.56178H1.01367V2.48863H19.9059V6.56178ZM13.4411 17.4843H1.01367V13.4114H13.4411V17.4843ZM1.01393 28.4072H19.9062V24.3342H1.01393V28.4072ZM105.366 28.4075H100.14L94.3662 18.7067L87.7917 28.4075H83.1556V2.48865H87.7917V20.4467L99.9714 2.48865H105.366L97.1477 14.5967L105.366 28.4075ZM139.999 2.48865H144.635V24.3346H155.677V28.4075H139.999V2.48865ZM166.022 28.4075H161.386V2.48865H166.022V28.4075ZM48.2469 13.8932C48.2469 7.59854 42.4308 2.48888 35.2663 2.48888H25.4886V28.4075H30.1317V25.2972V21.2246V6.56179H35.2663C37.4999 6.56179 39.607 7.33942 41.1663 8.7094C42.7678 10.0792 43.6107 11.9308 43.6107 13.8932C43.6107 15.8553 42.7678 17.707 41.1663 19.0769C40.7281 19.4622 40.2448 19.798 39.7291 20.0848L38.3721 18.2021H32.8932L34.5736 20.5222H34.568L38.1081 25.4096L38.1177 25.4062L40.2816 28.4075H45.7602L42.2199 23.5201C45.8447 21.4837 48.2469 17.9288 48.2469 13.8932ZM56.2414 42.9902C56.4214 42.9902 56.5893 42.9615 56.7451 42.9035C56.9011 42.8458 57.0378 42.7682 57.1556 42.6708C57.2731 42.5736 57.3665 42.4579 57.436 42.324C57.5051 42.1903 57.5397 42.0502 57.5397 41.9041C57.5397 41.7522 57.5051 41.6107 57.436 41.4797C57.3665 41.349 57.2731 41.2349 57.1556 41.1375C57.0378 41.0403 56.9011 40.9627 56.7451 40.9048C56.5893 40.847 56.4214 40.8181 56.2414 40.8181H54.4235V42.9902H56.2414ZM58.4436 45.7461H57.0931L55.8156 43.9937H54.4235V45.7461H54.0809H53.2808V39.8137H56.2414C56.5806 39.8137 56.8975 39.8684 57.1918 39.9779C57.4861 40.0875 57.744 40.2367 57.9656 40.4252C58.1873 40.6139 58.3622 40.8361 58.4905 41.0914C58.6185 41.347 58.6825 41.6178 58.6825 41.9037C58.6825 42.1289 58.6427 42.345 58.5629 42.5517C58.4834 42.7587 58.3725 42.9471 58.2306 43.1178C58.0886 43.288 57.9189 43.437 57.7217 43.565C57.5242 43.6926 57.308 43.7932 57.0724 43.866L58.4436 45.7461ZM49.9724 44.5278C49.8095 44.6709 49.6138 44.7421 49.3856 44.7421H46.8717V43.282H49.3856C49.6138 43.282 49.8095 43.3534 49.9724 43.4963C50.1348 43.6393 50.2164 43.8111 50.2164 44.0121C50.2164 44.2129 50.1348 44.385 49.9724 44.5278ZM49.7437 42.0639C49.5808 42.2069 49.3856 42.2781 49.1568 42.2781H46.8717V40.8181H49.1568C49.3856 40.8181 49.5808 40.8895 49.7437 41.0323C49.9065 41.1754 49.9881 41.3472 49.9881 41.548C49.9881 41.749 49.9065 41.9208 49.7437 42.0639ZM45.7288 39.8137V45.7461H49.3855C49.6557 45.7461 49.9118 45.7005 50.1541 45.6094C50.3963 45.5179 50.6059 45.3947 50.7827 45.2398C50.9592 45.0844 51.0993 44.9005 51.2032 44.6876C51.3073 44.4745 51.3592 44.2495 51.3592 44.0122C51.3592 43.7444 51.295 43.495 51.167 43.2638C51.0387 43.0325 50.864 42.8378 50.6426 42.6795C50.7947 42.5275 50.9141 42.3555 51.0007 42.1638C51.0875 41.9722 51.1305 41.7668 51.1305 41.5478C51.1305 41.3105 51.0786 41.0857 50.9749 40.8724C50.871 40.6595 50.7305 40.4756 50.5539 40.3202C50.3774 40.1651 50.168 40.0418 49.9257 39.9506C49.6833 39.8595 49.427 39.8137 49.1568 39.8137H45.7288ZM61.6431 40.8179V42.4787H64.8219V43.4829H61.6431V44.7422H65.3932V45.7464H60.5002V39.8139H65.3932V40.8179H61.6431ZM68.9768 43.547H71.4492L70.2131 41.0462L68.9768 43.547ZM70.8466 39.8139L73.776 45.7464H72.5294L71.9374 44.5505H68.4784L67.8861 45.7464H66.6395L69.5691 39.8139H70.8466ZM89.7628 40.8179H91.9338V39.8139H86.4492V40.8179H88.6199V45.7464H89.7628V40.8179ZM102.592 40.8179V42.4787H105.77V43.4829H102.592V44.7422H106.341V45.7464H101.449V39.8139H106.341V40.8179H102.592ZM79.2191 45.7461H80.6839L77.8377 42.6156L80.7255 39.8137H79.1776L76.269 42.6521V39.8137H75.1263V45.7461H76.269V44.1489L77.0583 43.3731L79.2191 45.7461ZM99.2675 39.8137V45.7461H98.1249V43.4826H94.5827V45.7461H93.4398V39.8137H94.5827V42.4787H98.1249V39.8137H99.2675ZM117.322 45.7461V44.7421H114.351V39.8137H113.208V45.7461H117.322ZM118.828 45.7461H119.97V39.8137H118.828V45.7461ZM129.403 45.7461V39.8137H127.647L125.777 43.6195L123.907 39.8137H122.152V45.7461H123.295V41.1005L125.258 45.0798H126.297L128.26 41.1005V45.7461H129.403ZM131.584 45.7461H132.727V39.8137H131.584V45.7461ZM137.547 40.8179H139.718V39.8139H134.233V40.8179H136.404V45.7464H137.547V40.8179Z" fill="#F0F8FC"/>
</svg>
