<svg width="24" height="25" viewBox="0 0 24 25" fill="none" xmlns="http://www.w3.org/2000/svg">
<path d="M18.1154 6.09488C17.0381 5.39245 16.2605 4.26856 16.018 2.9584C15.9656 2.67533 15.9368 2.38401 15.9368 2.08594H12.4984L12.4929 15.8659C12.435 17.409 11.165 18.6475 9.60804 18.6475C9.12413 18.6475 8.66848 18.5265 8.26729 18.3154C7.3473 17.8313 6.71771 16.867 6.71771 15.7572C6.71771 14.1634 8.01437 12.8668 9.60804 12.8668C9.90553 12.8668 10.1909 12.9159 10.4609 13.0004V9.49018C10.1815 9.45214 9.89765 9.42836 9.60804 9.42836C6.11829 9.42836 3.2793 12.2675 3.2793 15.7572C3.2793 17.8983 4.34905 19.7932 5.98108 20.9389C7.00906 21.6606 8.25948 22.0859 9.60804 22.0859C13.0978 22.0859 15.9368 19.247 15.9368 15.7572V8.76961C17.2854 9.73755 18.9376 10.3079 20.7205 10.3079V6.86953C19.7601 6.86953 18.8656 6.58402 18.1154 6.09488Z" fill="#FCFCFC"/>
</svg>
