<svg width="24" height="25" viewBox="0 0 24 25" fill="none" xmlns="http://www.w3.org/2000/svg">
<path fill-rule="evenodd" clip-rule="evenodd" d="M21.3505 4.18412C22.3825 4.4614 23.199 5.27784 23.4763 6.30992C23.9846 8.18926 24 12.0866 24 12.0866C24 12.0866 24 15.9993 23.4917 17.8632C23.2144 18.8953 22.3979 19.7117 21.3659 19.989C19.5019 20.4973 12 20.4973 12 20.4973C12 20.4973 4.49807 20.4973 2.63415 19.989C1.60205 19.7117 0.785624 18.8953 0.508344 17.8632C0 15.9839 0 12.0866 0 12.0866C0 12.0866 0 8.18926 0.492939 6.32533C0.770218 5.29324 1.58665 4.47681 2.61874 4.19953C4.48267 3.69118 11.9846 3.67578 11.9846 3.67578C11.9846 3.67578 19.4865 3.67578 21.3505 4.18412ZM15.8203 12.0866L9.59692 15.6912V8.48195L15.8203 12.0866Z" fill="#FCFCFC"/>
</svg>
